<svg width="90" height="28" viewBox="0 0 90 28" fill="none" xmlns="http://www.w3.org/2000/svg">
<g clip-path="url(#clip0_92_2262)">
<mask id="mask0_92_2262" style="mask-type:luminance" maskUnits="userSpaceOnUse" x="0" y="0" width="90" height="28">
<path d="M89.789 0H0V27.9242H89.789V0Z" fill="white"/>
</mask>
<g mask="url(#mask0_92_2262)">
<path d="M59.6075 11.4207L59.7757 11.7995C59.1559 11.7995 58.5394 11.8292 57.9229 11.7995C57.6091 11.7654 57.2985 11.7082 56.9932 11.6282L56.835 11.2527L56.9438 11.1704L56.7823 11.0979L56.2779 10.0405H52.1834L51.6097 11.0781C51.2537 11.1769 51.4218 11.4536 51.4119 11.6711C51.4162 11.7164 51.4047 11.7619 51.379 11.7995H48.6592C50.0207 8.71953 51.3724 5.63953 52.7537 2.576C53.0009 2.02588 53.1394 1.53835 52.8328 0.958588C52.7247 0.650094 52.6643 0.32677 52.6548 0H54.6526C55.0749 0.498216 55.3973 1.07309 55.602 1.69318C56.8251 4.65788 58.068 7.62259 59.3009 10.5873C59.3501 10.7283 59.3896 10.8725 59.4196 11.0188C59.3932 11.2 59.3207 11.3845 59.6075 11.4207ZM54.2405 4.83247L53.0768 7.57647C54.0987 7.728 54.6064 7.71482 55.2856 7.50729C54.9559 6.63765 54.6262 5.78447 54.2405 4.82259V4.83247Z" fill="#BD2A2E"/>
<path d="M11.8418 27.9078C10.0912 27.1534 8.33736 26.4155 6.59341 25.6414C4.84945 24.8673 3.12527 24.0471 1.37473 23.2697C0.927033 23.1095 0.467354 22.9851 0 22.8974V1.15625C0.311896 1.17358 0.620641 1.22776 0.91978 1.31766C1.72088 1.64707 2.50549 2.03578 3.2967 2.4179C5.9967 3.73555 8.9011 4.61178 11.3967 6.3939C11.4989 6.46637 11.7264 6.3939 11.8747 6.37414L11.8253 11.4932L4.98462 8.56472V19.633L11.8681 22.7459L11.8418 27.9078Z" fill="#BD2A2E"/>
<path d="M61.0249 6.71671C60.082 6.71671 60.059 6.68706 60.0557 5.768V4.73694L61.0908 4.63812C61.1106 4.30871 61.137 3.97929 61.1436 3.67953C61.1436 3.07341 61.1436 2.45082 61.4897 1.93035C61.7769 1.4784 62.129 1.07107 62.5348 0.721412C63.0359 0.316062 63.6441 0.0653711 64.2853 0C64.4073 0 65.9337 0.329412 66.4018 0.434824C66.0458 1.21224 65.7425 1.88753 65.4128 2.58918C64.8623 2.53647 64.3117 2.20706 63.8403 2.68141C63.3688 3.15576 63.659 3.82447 63.5106 4.47012H65.0535C65.2381 5.23435 65.1161 5.93929 65.159 6.70353H63.5798C63.5601 8.44282 63.5436 10.1261 63.5271 11.8061H61.3678V7.19435C61.3842 6.91765 61.3743 6.70353 61.0249 6.71671Z" fill="#BD2A2E"/>
<path d="M11.8683 6.37415L23.4068 1.18921V21.1911C23.4499 21.6513 23.5349 22.1067 23.6606 22.5516C22.6254 23.0918 21.6068 23.6749 20.5485 24.1657C18.0035 25.3647 15.4287 26.5045 12.8573 27.6706C12.528 27.7845 12.1893 27.8693 11.8452 27.9243L11.8683 22.7459L19.0156 19.577C19.1606 19.3365 19.4276 19.0993 19.4276 18.8556C19.4584 15.6954 19.4584 12.5342 19.4276 9.3718C19.4276 9.16097 19.2068 8.95015 19.098 8.73603C18.4386 8.9205 17.7595 9.06544 17.1199 9.29933C15.3397 10.0043 13.576 10.7586 11.8057 11.4932L11.8683 6.37415Z" fill="#67201E"/>
<path d="M68.4722 8.5647C68.7294 9.34541 69.6821 9.96141 70.47 10.1623C71.2579 10.3633 71.7887 9.65505 72.57 9.35199C73.5953 9.75388 73.859 9.92188 74.2513 10.4456C73.5096 11.2895 72.5001 11.8528 71.3921 12.0411C70.2841 12.2294 69.1447 12.0313 68.1656 11.48C66.4184 10.528 65.5612 8.35058 66.1217 6.33788C66.4032 5.35794 67.0121 4.50388 67.8472 3.91775C68.6819 3.33163 69.6927 3.04878 70.7107 3.11623C71.7073 3.09848 72.6752 3.45058 73.4272 4.10446C74.2184 4.80282 74.8546 5.61976 74.9898 6.73976C74.9216 6.92034 74.8698 7.10666 74.8349 7.29646C74.8052 7.57976 74.8151 7.86964 74.8085 8.18588H69.5601C69.2908 8.16608 69.0205 8.1727 68.7524 8.20564C68.6305 8.21552 68.5711 8.42964 68.4722 8.5647ZM68.6799 6.73976C69.9392 6.59152 71.1623 6.98352 72.3425 6.45646C71.8118 5.46823 71.0041 5.02352 70.114 5.20799C69.1513 5.40235 68.7195 5.82729 68.6799 6.72988V6.73976Z" fill="#BD2A2E"/>
<path d="M84.9596 6.53558L85.0123 6.90122C84.564 7.23063 85.0453 7.77416 84.6596 8.17275H78.7255C78.4618 8.17275 78.4651 8.3704 78.4684 8.55487L78.3365 8.62075L78.498 8.71299C79.0585 9.75722 80.0409 10.0306 81.1354 10.1525C81.8838 9.97793 81.9991 9.58593 82.4541 9.27957L83.9541 10.0669C83.9999 10.1207 84.0345 10.183 84.0563 10.2502C84.0777 10.3175 84.086 10.3883 84.08 10.4587C84.0744 10.5291 84.0546 10.5976 84.0223 10.6604C83.99 10.7232 83.9455 10.7789 83.8915 10.8245L83.8387 10.864C82.8728 11.6349 81.8343 12.1817 80.542 12.0269C80.0366 12.001 79.5335 11.9438 79.0354 11.8556C77.2156 11.3845 75.9959 9.74734 75.9035 7.76099C75.8676 7.09376 75.9912 6.42756 76.2642 5.81752C76.5372 5.20749 76.9512 4.6711 77.4728 4.25275C77.9129 3.88651 78.4186 3.60707 78.9629 3.42922C79.6137 3.21801 80.2967 3.12322 80.9805 3.14922C81.6118 3.20267 82.2237 3.39625 82.7706 3.71581C83.3162 4.0892 83.8179 4.52231 84.2673 5.0071C84.356 5.12569 84.4219 5.25973 84.4618 5.4024L84.653 5.81087C84.7255 6.05793 84.4222 6.4631 84.9596 6.53558ZM82.3552 6.44993C81.5442 4.8951 79.7178 4.72381 78.7717 6.02828C78.7275 6.07097 78.6922 6.12216 78.6682 6.17876C78.6441 6.23535 78.6319 6.29619 78.6319 6.35769C78.6319 6.41916 78.6441 6.48004 78.6682 6.53663C78.6922 6.59322 78.7275 6.64441 78.7717 6.6871L78.8112 6.72334C79.9387 6.58828 81.1453 6.95722 82.3552 6.44993Z" fill="#BD2A2E"/>
<path d="M44.4233 9.98442C44.868 9.95371 45.2982 9.81263 45.6747 9.57394C46.0512 9.33521 46.3621 9.00642 46.5793 8.61736L48.5145 9.74065C47.6474 11.7171 45.1288 12.4221 43.4178 12.0202C41.4397 11.5524 40.0123 10.2183 39.7914 7.73783C39.7317 6.79821 39.9994 5.86693 40.5496 5.10253C41.1193 4.23796 41.9725 3.59857 42.9628 3.29406C43.9433 2.95995 45.0055 2.94956 45.9925 3.26441C47.2189 3.67948 47.7463 4.14724 48.5507 5.37265C48.1189 5.63289 47.6936 5.9063 47.2551 6.15006C46.7211 6.44653 46.6255 6.43665 46.1804 5.9623C45.8844 5.61391 45.4825 5.37209 45.0358 5.27393C44.5894 5.17573 44.1226 5.22662 43.7079 5.41877C43.2615 5.57274 42.8784 5.86957 42.6177 6.26322C42.3572 6.6569 42.2343 7.12542 42.2672 7.59618C42.2587 8.06671 42.3974 8.52815 42.6638 8.91613C42.9305 9.30411 43.3116 9.59927 43.754 9.76042C43.9719 9.84932 44.1955 9.92417 44.4233 9.98442Z" fill="#BD2A2E"/>
<path d="M68.4727 8.56481C68.5617 8.43963 68.6309 8.2354 68.743 8.20245C69.011 8.16951 69.2813 8.16289 69.5507 8.18269H74.8089C74.8089 7.85328 74.8089 7.57657 74.8353 7.29328C74.8702 7.10347 74.922 6.91716 74.9902 6.73657L75.2177 8.38363C74.888 8.41657 74.6573 8.4561 74.4265 8.4561H69.3595C69.0621 8.4759 68.7661 8.51217 68.4727 8.56481Z" fill="#530C0A"/>
<path d="M78.4775 8.56466C78.4775 8.38019 78.4775 8.18913 78.7347 8.18254H84.6687C85.0545 7.78396 84.5731 7.24701 85.0215 6.9176C85.0874 7.38207 85.1501 7.84984 85.2259 8.39007C84.8962 8.42301 84.6753 8.46913 84.4479 8.46913H79.4665C79.1352 8.47971 78.8049 8.51163 78.4775 8.56466Z" fill="#530C0A"/>
<path d="M61.0254 6.71667C61.3748 6.71667 61.3847 6.93079 61.3814 7.19432V11.8061H63.5408C63.5803 12.0531 63.4452 12.119 63.2309 12.1157H61.1968C61.1507 11.9094 61.1177 11.7003 61.0979 11.4899V7.5995C61.088 7.31291 61.0485 7.01644 61.0254 6.71667Z" fill="#530C0A"/>
<path d="M23.67 22.5515C23.541 22.1069 23.4527 21.6516 23.4062 21.191V1.18913L23.7557 1.05078C23.7689 8.06066 23.7788 15.0716 23.7854 22.0837C23.7668 22.2439 23.7281 22.4011 23.67 22.5515Z" fill="#530C0A"/>
<path d="M56.9932 11.6348C57.2984 11.7147 57.609 11.7719 57.9228 11.8061C58.5393 11.8291 59.1558 11.8061 59.7756 11.8061L59.9437 12.0828H57.125L56.9932 11.6348Z" fill="#530C0A"/>
<path d="M48.6592 11.8062H51.379C51.379 12.1059 51.1911 12.1356 50.9603 12.1356H48.5273L48.6592 11.8062Z" fill="#530C0A"/>
<path d="M36.125 11.8062H38.6734C38.6239 11.9017 38.5777 12.0796 38.525 12.0796C37.7734 12.0993 37.0184 12.0993 36.2668 12.0796C36.2173 12.0796 36.1745 11.9017 36.125 11.8062Z" fill="#530C0A"/>
<path d="M28.3057 11.8062H30.8474C30.7815 11.8885 30.7156 12.04 30.6496 12.04C29.9375 12.0576 29.2232 12.0576 28.5068 12.04C28.4375 12.0302 28.3716 11.8852 28.3057 11.8062Z" fill="#530C0A"/>
<path d="M84.9597 6.53548C84.4223 6.46301 84.7124 6.05784 84.6597 5.78772L84.9597 6.53548Z" fill="#530C0A"/>
<path d="M38.6733 0.546791L38.4458 0.30632L33.5074 3.95291C33.2238 3.75526 32.9766 3.58726 32.7359 3.40938C31.6777 2.6155 30.6227 1.81832 29.5612 1.02773C29.2777 0.816908 28.6249 0.207496 28.292 0.164673V0.724673C28.292 2.04232 28.2557 3.35997 28.259 4.67761C28.259 7.05267 28.2788 9.42444 28.292 11.7962H30.8337C30.8535 9.63197 30.8733 7.47103 30.8931 5.18161L33.4876 7.08232L36.1249 5.14867V11.8061H38.6733C38.6733 10.607 38.7063 9.40797 38.7063 8.20561C38.6997 5.65267 38.6832 3.09973 38.6733 0.546791Z" fill="#BD2A2E"/>
<path d="M51.4286 11.6777C51.4286 11.4602 51.2704 11.1835 51.6264 11.0847L51.4286 11.6777Z" fill="#530C0A"/>
<path d="M38.6738 0.546783L38.4463 0.306311L38.6672 0.148193L38.6738 0.546783Z" fill="#530C0A"/>
<path d="M59.6074 11.4207C59.3206 11.3844 59.3931 11.1835 59.4195 11.0056L59.6074 11.4207Z" fill="#530C0A"/>
<path d="M56.7826 11.1045L56.9441 11.177L56.8353 11.2593C56.8155 11.239 56.8007 11.2146 56.7915 11.1878C56.7822 11.1611 56.7793 11.1326 56.7826 11.1045Z" fill="#530C0A"/>
<path d="M78.5141 8.70304L78.3525 8.6108L78.4844 8.54492C78.5042 8.59532 78.5141 8.64895 78.5141 8.70304Z" fill="#530C0A"/>
<path d="M19.0186 19.5769L19.101 8.73596C19.2164 8.95008 19.4306 9.1609 19.4306 9.37173C19.4504 12.5341 19.4504 15.6953 19.4306 18.8555C19.4306 19.1058 19.1636 19.3364 19.0186 19.5769Z" fill="#530C0A"/>
<path d="M36.0894 23.5562C36.0986 24.0054 35.9846 24.4485 35.7597 24.8376C35.5379 25.2082 35.2346 25.5235 34.8729 25.76C34.4688 26.0192 34.0224 26.2064 33.5542 26.3134C33.0297 26.4412 32.4918 26.5043 31.952 26.5011C31.5934 26.5031 31.2351 26.4767 30.8806 26.4221C30.5856 26.3774 30.2937 26.3136 30.007 26.231C29.7902 26.1711 29.5786 26.094 29.374 26.0004C29.2457 25.9413 29.1241 25.8684 29.0114 25.783C28.9306 25.714 28.875 25.6201 28.8531 25.5162C28.815 25.3499 28.7984 25.1794 28.8037 25.0089C28.8025 24.8845 28.8091 24.7602 28.8235 24.6367C28.8302 24.5531 28.8491 24.471 28.8795 24.3929C28.8996 24.3397 28.9352 24.2938 28.9817 24.2611C29.0275 24.2338 29.0801 24.2201 29.1334 24.2216C29.2506 24.2367 29.3631 24.2771 29.463 24.3402C29.9015 24.5704 30.3665 24.7463 30.8477 24.864C31.2108 24.9478 31.5827 24.9876 31.9553 24.9825C32.2039 24.9844 32.4518 24.9567 32.6938 24.9002C32.8914 24.8542 33.0799 24.7751 33.251 24.6663C33.396 24.5735 33.5153 24.4452 33.5971 24.2937C33.6792 24.1421 33.7211 23.9722 33.7191 23.8C33.7227 23.5987 33.6485 23.4039 33.5114 23.2564C33.3561 23.094 33.1745 22.9592 32.974 22.8578C32.7316 22.7303 32.4804 22.6203 32.2224 22.5284L31.352 22.199C31.0549 22.0845 30.7644 21.9536 30.4817 21.807C30.2087 21.6671 29.9558 21.4909 29.7301 21.2832C29.5069 21.0802 29.3245 20.8365 29.1927 20.5651C29.0484 20.256 28.9774 19.9179 28.985 19.5769C28.9766 19.1664 29.0791 18.7613 29.2817 18.4042C29.4801 18.0669 29.7544 17.7805 30.0828 17.5675C30.4458 17.3327 30.8477 17.1643 31.2696 17.0701C31.7446 16.9558 32.2316 16.8994 32.7202 16.9021C32.9849 16.9032 33.249 16.9208 33.5114 16.9548C33.761 16.9857 34.0085 17.0308 34.2531 17.0898C34.4605 17.1414 34.6642 17.2063 34.863 17.2842C34.9877 17.3285 35.106 17.3882 35.2158 17.4621C35.2606 17.4963 35.2995 17.5374 35.3312 17.584C35.3562 17.6245 35.374 17.6691 35.3839 17.7157C35.4007 17.7848 35.4106 17.8555 35.4136 17.9265C35.4136 18.0089 35.4136 18.111 35.4136 18.2362C35.4136 18.3614 35.4136 18.4931 35.4136 18.5887C35.407 18.6689 35.3928 18.7484 35.3707 18.8258C35.3552 18.878 35.3256 18.9248 35.285 18.9609C35.2405 18.9915 35.1871 19.0066 35.1334 19.0037C35.0279 18.9905 34.926 18.9569 34.8334 18.9049C34.6949 18.8357 34.5268 18.7632 34.3257 18.6842C34.0975 18.598 33.8641 18.5265 33.6268 18.4701C33.3426 18.4031 33.0515 18.371 32.7597 18.3745C32.5377 18.3692 32.316 18.3936 32.1004 18.447C31.9361 18.4902 31.7802 18.5603 31.6389 18.6545C31.533 18.7387 31.4488 18.8469 31.3932 18.97C31.3376 19.0932 31.3122 19.2278 31.3191 19.3628C31.3157 19.5597 31.3876 19.7506 31.5202 19.8964C31.6757 20.0621 31.86 20.1983 32.0641 20.2983C32.3138 20.4249 32.5715 20.535 32.8356 20.6277C33.1224 20.7298 33.4125 20.8385 33.7125 20.9571C34.0115 21.0721 34.3042 21.203 34.5894 21.3491C34.8673 21.4881 35.1255 21.6631 35.3575 21.8696C35.5794 22.0748 35.7624 22.318 35.8982 22.5877C36.0367 22.8912 36.1023 23.2229 36.0894 23.5562Z" fill="white"/>
<path d="M44.42 25.5986C44.4224 25.7144 44.4144 25.83 44.397 25.9445C44.3891 26.0232 44.368 26.1001 44.3343 26.1718C44.3093 26.2221 44.272 26.2652 44.2255 26.2969C44.183 26.3233 44.1339 26.337 44.0838 26.3365H38.4794C38.3093 26.342 38.1421 26.2936 38.0014 26.1981C37.9341 26.1433 37.8814 26.073 37.8474 25.9932C37.8134 25.9134 37.7996 25.8266 37.8069 25.7402V17.6565C37.7989 17.5705 37.8128 17.484 37.8467 17.4046C37.8807 17.3253 37.9338 17.2556 38.0014 17.2019C38.1421 17.1064 38.3093 17.058 38.4794 17.0635H44.0409C44.0881 17.0622 44.1349 17.0736 44.1761 17.0965C44.2236 17.1276 44.2602 17.1724 44.2816 17.2249C44.3129 17.2975 44.334 17.374 44.3442 17.4522C44.362 17.57 44.3696 17.689 44.3673 17.808C44.3686 17.9183 44.361 18.0285 44.3442 18.1374C44.334 18.2157 44.3129 18.2922 44.2816 18.3647C44.2582 18.4151 44.2219 18.4584 44.1761 18.4899C44.1359 18.5162 44.0891 18.53 44.0409 18.5294H40.0717V20.7925H43.4376C43.4877 20.792 43.5369 20.8057 43.5794 20.832C43.6252 20.8629 43.6628 20.9048 43.6882 20.9539C43.7215 21.0247 43.7439 21.1003 43.7541 21.1779C43.768 21.2871 43.7749 21.3972 43.7739 21.5073C43.7752 21.6229 43.7686 21.7385 43.7541 21.8532C43.7429 21.9285 43.7208 22.0017 43.6882 22.0706C43.6648 22.1201 43.6269 22.1614 43.5794 22.1892C43.5359 22.213 43.4871 22.2255 43.4376 22.2254H40.0717V24.8409H44.0838C44.1339 24.8404 44.183 24.8541 44.2255 24.8805C44.273 24.911 44.3106 24.9544 44.3343 25.0057C44.3676 25.0763 44.3887 25.152 44.397 25.2297C44.4154 25.3517 44.4233 25.4752 44.42 25.5986Z" fill="white"/>
<path d="M53.8617 24.9331C53.8617 25.0517 53.8617 25.1538 53.8617 25.2362C53.8538 25.3084 53.8406 25.38 53.8222 25.4503C53.808 25.5054 53.7846 25.5577 53.753 25.6051C53.7134 25.6604 53.6669 25.7102 53.6145 25.7534C53.5011 25.8373 53.3781 25.908 53.2486 25.9642C53.0356 26.0633 52.815 26.1459 52.5892 26.2112C52.2965 26.2977 51.9978 26.3637 51.6958 26.4089C51.3358 26.4633 50.9722 26.4898 50.6079 26.4879C49.908 26.4968 49.2108 26.3979 48.5409 26.1948C47.962 26.017 47.4279 25.7171 46.9749 25.3152C46.5345 24.9136 46.1956 24.4135 45.9859 23.8559C45.7433 23.2052 45.6259 22.5145 45.6398 21.8202C45.6263 21.1026 45.7552 20.3894 46.0189 19.7218C46.2536 19.1364 46.6149 18.6099 47.0771 18.1802C47.5492 17.7547 48.105 17.4326 48.709 17.2348C49.3852 17.011 50.0936 16.8997 50.8057 16.9054C51.1047 16.9041 51.4034 16.925 51.6991 16.9679C51.9681 17.0095 52.2345 17.0668 52.4969 17.1392C52.7224 17.2014 52.943 17.2807 53.1563 17.3764C53.301 17.4384 53.4381 17.5169 53.565 17.6103C53.6254 17.6571 53.6798 17.7113 53.7266 17.7717C53.7566 17.8235 53.7797 17.8788 53.7958 17.9364C53.8146 18.0143 53.8265 18.0937 53.8321 18.1736C53.8377 18.2833 53.8377 18.3933 53.8321 18.503C53.8344 18.6251 53.8288 18.7472 53.8156 18.8686C53.81 18.9527 53.7899 19.0352 53.7563 19.1124C53.7342 19.1672 53.6976 19.2149 53.6508 19.2508C53.6109 19.2781 53.5641 19.293 53.5156 19.2936C53.3966 19.2816 53.2828 19.2384 53.1859 19.1684C53.0214 19.0647 52.851 18.9712 52.6749 18.8884C52.4349 18.7716 52.1844 18.6778 51.9266 18.6084C51.588 18.5178 51.2386 18.4757 50.8881 18.4832C50.4826 18.477 50.0798 18.5532 49.7046 18.7072C49.3631 18.8573 49.0601 19.0825 48.8178 19.3661C48.5653 19.6625 48.3767 20.0079 48.2639 20.3806C48.0045 21.2815 48.0045 22.237 48.2639 23.1378C48.38 23.5061 48.5771 23.8438 48.8409 24.1261C49.0957 24.3866 49.4069 24.5849 49.7508 24.7058C50.1348 24.8371 50.5383 24.9018 50.9442 24.8969C51.2949 24.9027 51.6454 24.8628 51.9859 24.7783C52.2431 24.7104 52.4943 24.6223 52.7376 24.5148C52.9486 24.4192 53.12 24.3336 53.2551 24.2578C53.3537 24.1929 53.4671 24.1533 53.5848 24.1425C53.6326 24.1407 53.6804 24.1509 53.7233 24.1722C53.7638 24.2 53.7942 24.2406 53.809 24.2875C53.8364 24.3641 53.8538 24.4437 53.8617 24.5246C53.8552 24.6235 53.8617 24.7585 53.8617 24.9331Z" fill="white"/>
<path d="M64.5758 22.881C64.5884 23.4052 64.4895 23.9262 64.2857 24.4094C64.0856 24.8548 63.7817 25.2456 63.3989 25.5492C62.9687 25.8793 62.4765 26.1202 61.9517 26.2574C61.3065 26.4285 60.6409 26.5105 59.9736 26.5012C59.3384 26.5088 58.7047 26.4357 58.0879 26.2838C57.5786 26.1598 57.0989 25.9358 56.6769 25.625C56.2955 25.3347 55.9919 24.9544 55.7934 24.5181C55.5821 24.0287 55.4786 23.4995 55.4901 22.9666V17.3205C55.4895 17.2729 55.5073 17.2269 55.5396 17.192C55.5917 17.1445 55.6553 17.1115 55.7242 17.0965C55.8389 17.0688 55.9559 17.0501 56.0736 17.0405C56.2187 17.0405 56.4033 17.0207 56.6242 17.0207C56.8451 17.0207 57.0231 17.0207 57.1681 17.0405C57.2792 17.0504 57.3897 17.0692 57.4978 17.0965C57.5664 17.1123 57.63 17.1452 57.6824 17.192C57.7006 17.208 57.7151 17.2278 57.725 17.25C57.7345 17.2722 57.7391 17.2963 57.7385 17.3205V22.7953C57.7316 23.1225 57.7876 23.4479 57.9033 23.7539C58.0045 24.0076 58.1651 24.2335 58.3714 24.4127C58.5851 24.5951 58.8343 24.7308 59.1033 24.8113C59.4122 24.9034 59.7336 24.9478 60.0561 24.9431C60.3788 24.9473 60.6999 24.9018 61.0088 24.808C61.2729 24.7271 61.5165 24.5912 61.7242 24.4094C61.9236 24.2276 62.0783 24.0022 62.1758 23.7506C62.2866 23.4742 62.3413 23.1787 62.3374 22.881V17.281C62.3367 17.2334 62.3545 17.1873 62.3868 17.1525C62.4379 17.1056 62.5006 17.0726 62.5681 17.057C62.6829 17.0285 62.7996 17.0097 62.9176 17.001C63.0627 17.001 63.2473 16.9812 63.4648 16.9812C63.6824 16.9812 63.8605 16.9812 64.0022 17.001C64.1133 17.011 64.2238 17.0297 64.3319 17.057C64.3995 17.0726 64.4621 17.1056 64.5132 17.1525C64.5455 17.1873 64.5633 17.2334 64.5626 17.281L64.5758 22.881Z" fill="white"/>
<path d="M75.26 26.0927C75.261 26.1392 75.2485 26.1851 75.2238 26.2245C75.1819 26.2721 75.1249 26.3036 75.0622 26.3134C74.9379 26.3444 74.811 26.3621 74.6831 26.3661C74.515 26.3661 74.2875 26.3661 74.0007 26.3661C73.7139 26.3661 73.5688 26.3661 73.4238 26.3661C73.312 26.3597 73.2016 26.3409 73.0941 26.3101C73.0278 26.2936 72.9675 26.2594 72.9194 26.2113C72.8818 26.1677 72.8528 26.1174 72.8337 26.0631L71.8446 23.9943C71.7227 23.7605 71.6073 23.5496 71.4919 23.3685C71.3864 23.1997 71.2578 23.0467 71.1095 22.9139C70.9664 22.7909 70.8006 22.6969 70.6216 22.6372C70.4159 22.572 70.2009 22.5408 69.9853 22.5449H69.2798V26.0795C69.2785 26.128 69.2584 26.174 69.2238 26.208C69.1704 26.253 69.1071 26.2846 69.0392 26.3002C68.9254 26.3282 68.8097 26.3481 68.693 26.3595C68.5512 26.3595 68.3633 26.3793 68.1425 26.3793C67.9216 26.3793 67.7435 26.3793 67.5952 26.3595C67.4841 26.3473 67.374 26.3275 67.2655 26.3002C67.1976 26.2871 67.135 26.2551 67.0842 26.208C67.0506 26.1737 67.0318 26.1276 67.0315 26.0795V17.6565C67.0236 17.5705 67.0374 17.484 67.0714 17.4046C67.1053 17.3253 67.1584 17.2556 67.226 17.2019C67.3664 17.1058 67.5339 17.0573 67.704 17.0635H70.549C70.8425 17.0635 71.0831 17.0635 71.2743 17.0635C71.4655 17.0635 71.6337 17.0833 71.7886 17.0998C72.2007 17.1439 72.6068 17.2345 72.9985 17.3699C73.3295 17.4856 73.6384 17.6572 73.9117 17.8772C74.156 18.077 74.3518 18.3292 74.4853 18.6151C74.6234 18.9259 74.691 19.2633 74.6831 19.6033C74.6854 19.8926 74.6376 20.1802 74.5414 20.4532C74.4471 20.7064 74.305 20.939 74.1227 21.1383C73.9259 21.3472 73.6964 21.5229 73.4436 21.6588C73.1521 21.8167 72.8419 21.9373 72.5205 22.0179C72.6846 22.0845 72.8426 22.1661 72.9919 22.2616C73.1429 22.3611 73.281 22.4783 73.404 22.6108C73.5395 22.7546 73.6618 22.91 73.7699 23.0753C73.8919 23.2659 74.002 23.4639 74.0996 23.6682L75.0359 25.4932C75.0998 25.623 75.1568 25.7561 75.2073 25.8918C75.2353 25.9555 75.2531 26.0234 75.26 26.0927ZM72.3392 19.8009C72.3481 19.5222 72.2607 19.2489 72.0919 19.0268C71.8783 18.7894 71.5898 18.6324 71.2743 18.5821C71.1589 18.5591 71.0271 18.5393 70.882 18.5228C70.737 18.5063 70.5326 18.5031 70.2754 18.5031H69.26V21.1383H70.4139C70.6971 21.1437 70.9799 21.1116 71.2545 21.0428C71.4754 20.9861 71.6838 20.8877 71.8677 20.7529C72.0207 20.645 72.1453 20.5014 72.2304 20.3346C72.3065 20.1672 72.3438 19.9847 72.3392 19.8009Z" fill="white"/>
<path d="M83.5216 25.5986C83.5229 25.7142 83.5163 25.8298 83.5018 25.9445C83.4916 26.0231 83.4692 26.0998 83.4359 26.1718C83.4108 26.2221 83.3736 26.2652 83.3271 26.2969C83.2846 26.3233 83.2355 26.337 83.1853 26.3365H77.5809C77.4108 26.342 77.2437 26.2936 77.1029 26.1981C77.0357 26.1433 76.9829 26.073 76.949 25.9932C76.915 25.9134 76.9012 25.8266 76.9084 25.7402V17.6565C76.9005 17.5705 76.9144 17.484 76.9483 17.4046C76.9823 17.3253 77.0353 17.2556 77.1029 17.2019C77.2437 17.1065 77.4108 17.058 77.5809 17.0635H83.1425C83.1906 17.0627 83.2384 17.074 83.2809 17.0965C83.3264 17.129 83.3617 17.1735 83.3831 17.2249C83.4158 17.297 83.4369 17.3737 83.4458 17.4522C83.4636 17.57 83.4712 17.689 83.4689 17.808C83.4702 17.9183 83.4626 18.0285 83.4458 18.1374C83.4369 18.216 83.4158 18.2927 83.3831 18.3647C83.3601 18.4143 83.3248 18.4573 83.2809 18.4899C83.2394 18.5158 83.1913 18.5295 83.1425 18.5294H79.1766V20.7925H82.5392C82.5893 20.792 82.6384 20.8057 82.6809 20.832C82.7278 20.8619 82.7653 20.9041 82.7897 20.9539C82.823 21.0247 82.8455 21.1003 82.8557 21.1779C82.8695 21.2871 82.8764 21.3972 82.8755 21.5073C82.8768 21.6229 82.8702 21.7385 82.8557 21.8532C82.8445 21.9285 82.8224 22.0018 82.7897 22.0706C82.767 22.1208 82.7291 22.1623 82.6809 22.1892C82.6374 22.213 82.5886 22.2255 82.5392 22.2254H79.1766V24.8409H83.1853C83.2355 24.8404 83.2846 24.8541 83.3271 24.8805C83.3746 24.911 83.4122 24.9545 83.4359 25.0057C83.4689 25.0767 83.4909 25.1521 83.5018 25.2297C83.5173 25.352 83.5239 25.4753 83.5216 25.5986Z" fill="white"/>
<path d="M85.1055 17.1091V16.8518H86.9038V17.1091H86.1499V19.2475H85.8594V17.1091H85.1055ZM87.3518 16.8518H87.6983L88.5129 18.8404H88.5413L89.3559 16.8518H89.7024V19.2475H89.4311V17.4273H89.4077L88.6583 19.2475H88.3959L87.6469 17.4273H87.6235V19.2475H87.3518V16.8518Z" fill="white"/>
</g>
</g>
<defs>
<clipPath id="clip0_92_2262">
<rect width="90" height="28" fill="white"/>
</clipPath>
</defs>
</svg>
