<svg width="69" height="30" viewBox="0 0 69 30" fill="none" xmlns="http://www.w3.org/2000/svg">
<rect x="4" y="3" width="41" height="24" fill="#FDFDFD"/>
<path d="M51.8018 3.80261L57.94 26.0608L64.7456 25.7844L65.062 21.5426L65.3259 14.96L65.062 7.13871L65.0061 5.61754L64.9729 4.63261L62.7514 3.48767H58.2564L51.8018 3.80261Z" fill="#BAD33C"/>
<path d="M6.33887 1.2532C6.93182 1.04021 7.56864 1.17527 8.1802 1.19476C25.6828 1.18437 43.1841 1.16878 60.6867 1.15709C61.7622 1.18307 62.8617 1.06099 63.916 1.33372C64.2842 1.48826 64.7868 1.50645 64.9729 1.91424C64.7176 1.82982 64.4584 1.76099 64.2031 1.68307C63.5929 1.4532 62.9428 1.348 62.29 1.3545C58.5183 1.39346 54.7465 1.36878 50.9735 1.37917C50.0628 1.36748 49.1494 1.41294 48.2401 1.3506C48.046 1.32593 47.8519 1.29735 47.6578 1.28437C35.9637 1.25969 24.2669 1.22592 12.5715 1.22073C10.4935 1.22592 8.41551 1.19216 6.33887 1.2532Z" fill="#808080"/>
<path d="M3.28087 25.9272C3.54012 26.2636 3.83394 26.5779 4.16631 26.8467C3.72492 26.9701 3.25561 27.0636 2.79827 26.9805C2.50845 26.8493 2.36353 26.5402 2.19336 26.2922C2.53637 26.2376 2.87937 26.1857 3.21839 26.113C3.23434 26.0662 3.26492 25.974 3.28087 25.9272Z" fill="#808080"/>
<path d="M3.24219 2.44545C4.06248 1.68701 5.21646 1.28831 6.33855 1.25324C8.41519 1.1922 10.4932 1.22597 12.5711 1.22078C24.2666 1.22597 35.9633 1.25974 47.6574 1.28441C47.8516 1.2974 48.0457 1.32597 48.2398 1.35065C43.0827 1.41169 37.9243 1.36623 32.7673 1.38571C24.4381 1.39221 16.1089 1.40389 7.77837 1.41558C6.95144 1.42338 6.10855 1.36104 5.30155 1.58052C4.86814 1.67922 4.45733 1.85584 4.07311 2.07402C3.89629 2.17792 3.72745 2.2948 3.5586 2.41169C3.48016 2.41948 3.32196 2.43766 3.24219 2.44545Z" fill="#5A5858"/>
<path d="M52.3434 9.31298C53.1159 8.50909 54.2592 8.11688 55.376 8.12597C56.4515 8.07532 57.5683 8.35844 58.3952 9.05454C58.9589 9.5 59.2461 10.1662 59.6423 10.7403C59.9972 12.026 59.7992 13.3779 59.8244 14.6935C59.7021 14.6948 59.4562 14.6961 59.3325 14.6961C59.3219 13.7571 59.3405 12.8182 59.3259 11.8792C59.3179 10.6247 58.5907 9.40779 57.4859 8.77013C56.183 7.98052 54.4174 8.06883 53.2049 8.98441C52.2783 9.65584 51.7133 10.7584 51.6853 11.8831C51.672 12.8221 51.68 13.7623 51.6946 14.7013C51.6468 14.7013 51.5524 14.7013 51.5045 14.7013C51.4248 14.7026 51.2666 14.7026 51.1868 14.7026C51.1894 13.5221 51.0897 12.3286 51.2599 11.1558C51.5803 10.5221 51.8276 9.82987 52.3434 9.31298Z" fill="#5A5858"/>
<path d="M5.30176 1.58058C6.10875 1.3611 6.95164 1.42344 7.77858 1.41564C16.1091 1.40395 24.4383 1.39227 32.7675 1.38577C37.9245 1.36629 43.0829 1.41175 48.24 1.35071C49.1493 1.41305 50.0627 1.36759 50.9734 1.37928C54.7464 1.36889 58.5182 1.39357 62.2899 1.3546C62.9427 1.34811 63.5928 1.45331 64.203 1.68318C53.3731 1.71434 42.5405 1.69746 31.7105 1.71824C27.629 1.72214 23.5475 1.71045 19.4687 1.78447C15.1293 1.78577 10.7899 1.78447 6.45176 1.79876C6.06355 1.77798 5.59424 1.90915 5.30176 1.58058Z" fill="#DCDCDC"/>
<path d="M1.45408 23.5558C1.73061 23.5208 2.00847 23.487 2.285 23.4532C2.36211 23.6792 2.43922 23.9039 2.50835 24.1325C2.49506 24.1805 2.46847 24.274 2.45518 24.3221C2.12414 24.3104 1.79309 24.3169 1.46205 24.3364C1.45009 24.1429 1.44211 23.9481 1.43945 23.7545L1.45408 23.5558Z" fill="#DCDCDC"/>
<path d="M4.07324 2.07407C4.45746 1.85589 4.86827 1.67927 5.30168 1.58057C5.59417 1.90914 6.06347 1.77797 6.45168 1.79875C10.7898 1.78446 15.1292 1.78576 19.4686 1.78446C23.5475 1.71044 27.629 1.72212 31.7105 1.71823C42.5404 1.69745 53.373 1.71433 64.203 1.68316C64.4582 1.76109 64.7175 1.82992 64.9727 1.91433L65.0618 2.02212C64.4928 2.09745 63.9184 2.09485 63.3468 2.08576C43.9816 2.09225 24.6177 2.08576 5.25249 2.11823C4.86295 2.09355 4.43619 2.27148 4.07324 2.07407Z" fill="#B1B1B1"/>
<path d="M64.9727 1.91429L65.0032 1.73767C66.3301 2.48702 67.4614 3.73248 67.7366 5.23767C67.5851 5.04287 67.4575 4.80261 67.2301 4.68313C66.8725 4.59871 66.4976 4.64546 66.1333 4.64546C65.9631 4.35196 65.7717 4.07014 65.5629 3.80261C65.9738 3.72988 66.3939 3.72598 66.8113 3.76235C66.58 3.28183 66.2569 2.84157 65.8129 2.52858C65.5656 2.35585 65.3024 2.2039 65.0617 2.02209L64.9727 1.91429Z" fill="#666666"/>
<path d="M3.55909 2.41171C3.72793 2.29482 3.89677 2.17794 4.0736 2.07404C4.43654 2.27145 4.86331 2.09352 5.25284 2.1182C24.6181 2.08573 43.9819 2.09222 63.3471 2.08573C63.9188 2.09482 64.4931 2.09742 65.0622 2.02209C65.3028 2.20391 65.566 2.35586 65.8133 2.52859C65.699 2.59872 65.586 2.66885 65.4743 2.73898C65.3959 2.69612 65.3174 2.65326 65.2403 2.61041C64.7816 2.7182 64.3057 2.75976 63.8404 2.65846C63.3764 2.52209 62.8964 2.43378 62.4098 2.44547C44.1986 2.47145 25.9874 2.48963 7.7762 2.50132C6.76313 2.47924 5.70753 2.50002 4.78088 2.95326C4.28764 2.81041 3.7718 2.87145 3.2666 2.8169C3.36232 2.68054 3.45938 2.54417 3.55909 2.41171Z" fill="#969696"/>
<path d="M66.6284 7.78573C66.9728 7.78573 67.3171 7.78443 67.6628 7.78833C67.6907 8.07794 67.7106 8.36885 67.7213 8.65976C67.6721 8.54287 67.6216 8.42599 67.571 8.31041C67.2493 8.27924 66.9289 8.23898 66.6191 8.15456C66.6218 8.06235 66.6271 7.87794 66.6284 7.78573Z" fill="#969696"/>
<path d="M3.18048 2.452L3.24296 2.44551C3.32273 2.43772 3.48094 2.41954 3.55938 2.41174C3.45967 2.54421 3.36261 2.68057 3.26689 2.81694C3.77209 2.87148 4.28793 2.81044 4.78117 2.9533C4.34111 3.22083 3.91568 3.52213 3.56603 3.90006C3.16452 3.89616 2.76435 3.86239 2.36816 3.80135C2.42799 3.5598 2.49579 3.31824 2.56493 3.07928C2.75371 2.8546 2.97574 2.66239 3.18048 2.452Z" fill="#7C7C7C"/>
<path d="M7.77584 2.50134C25.9871 2.48965 44.1983 2.47147 62.4095 2.44549C62.8961 2.4338 63.376 2.52212 63.84 2.65848C64.4728 2.9429 65.0817 3.30264 65.563 3.80264C65.7717 4.07017 65.9632 4.35199 66.1334 4.64549C66.2317 4.85978 66.3142 5.07926 66.3899 5.30264C66.4764 5.57406 66.5521 5.84809 66.6306 6.12212C66.9709 6.08705 67.3086 6.02991 67.6436 5.95329C67.6357 6.17926 67.6197 6.40523 67.6051 6.63121C67.2794 6.65848 66.9058 6.56238 66.6213 6.75978C66.5295 7.08186 66.5508 7.42212 66.5482 7.75329C66.5468 8.11173 66.5747 8.46887 66.5934 8.82601C66.5987 13.9325 66.6067 19.0377 66.5867 24.1429C66.475 24.5273 66.358 24.9117 66.2038 25.2806C66.0562 25.5637 65.8821 25.8325 65.6893 26.0871C65.4793 26.3234 65.2479 26.539 65.006 26.7429C64.2269 27.2624 63.3242 27.6533 62.3656 27.6533C44.6117 27.6741 26.8579 27.6572 9.10399 27.6935C8.05769 27.7403 7.00607 27.7663 5.96376 27.6429C5.31364 27.5104 4.71405 27.2039 4.1663 26.8468C3.83393 26.578 3.54012 26.2637 3.28087 25.9273C3.10139 25.626 2.92723 25.3208 2.79162 24.9987C2.70388 24.6767 2.61613 24.3546 2.53636 24.0299C2.56162 22.0728 2.54833 20.1143 2.5337 18.1572C2.55231 16.339 2.547 14.5208 2.52174 12.7039C2.55497 11.7961 2.53503 10.8858 2.52041 9.97796C2.5563 9.22861 2.50312 8.47796 2.52705 7.72861C2.56162 7.41562 2.64538 7.06887 2.49249 6.77277C2.24786 6.5338 1.85567 6.66367 1.54723 6.63251C1.5459 6.45718 1.5459 6.28056 1.5459 6.10523C1.85567 6.12731 2.2226 6.29355 2.49382 6.07666C2.5922 5.87017 2.64937 5.64809 2.71717 5.43121C2.80093 5.14549 2.9033 4.86497 3.04023 4.59874C3.2011 4.35588 3.37659 4.12212 3.56538 3.90004C3.91503 3.52212 4.34046 3.22082 4.78052 2.95329C5.70717 2.50004 6.76278 2.47926 7.77584 2.50134ZM45.1262 2.89355C44.9361 2.90004 44.7473 2.91562 44.5612 2.939C35.8212 2.97796 27.0799 2.94419 18.3386 2.98316C14.4179 2.95588 10.496 2.98965 6.57399 2.98835C4.71139 2.98056 3.01364 4.59614 3.02162 6.42471C3.01497 12.1403 3.0296 17.8559 3.03093 23.5715C2.97642 24.8793 3.73688 26.2013 4.94538 26.7884L4.95468 26.8325C5.55428 27.0754 6.1911 27.2442 6.8452 27.2481C12.4742 27.239 18.1032 27.2403 23.7323 27.2273C24.8371 27.1546 25.9472 27.3026 27.0546 27.1871C32.9136 27.1754 38.7727 27.1793 44.6317 27.1676C50.5612 27.1728 56.4906 27.1533 62.4201 27.1507C63.5794 27.1858 64.7161 26.6195 65.4061 25.7156C66.039 24.9286 66.1932 23.8948 66.1732 22.9221C66.144 21.0195 66.2184 19.1156 66.1161 17.2156C66.1161 13.7078 66.1081 10.2 66.1094 6.69095C66.132 6.06627 66.0336 5.42861 65.7345 4.86887C65.1389 3.65848 63.7882 2.88316 62.4268 2.87666C56.6595 2.88316 50.8922 2.88965 45.1262 2.89355Z" fill="#2D2D2E"/>
<path d="M65.2398 2.61038C65.3169 2.65324 65.3953 2.6961 65.4738 2.73895C65.5855 2.66882 65.6985 2.59869 65.8128 2.52856C66.2568 2.84155 66.5799 3.28181 66.8112 3.76233C66.3938 3.72597 65.9737 3.72986 65.5628 3.80259C65.0816 3.30259 64.4727 2.94285 63.8398 2.65843C64.3052 2.75973 64.7811 2.71817 65.2398 2.61038Z" fill="#7E7E7E"/>
<path d="M45.1266 2.89347C50.8926 2.88957 56.6599 2.88308 62.4272 2.87659C63.7885 2.88308 65.1393 3.65841 65.7349 4.8688C66.034 5.42854 66.1324 6.0662 66.1098 6.69087C66.1085 10.2 66.1165 13.7078 66.1165 17.2155C66.2188 19.1155 66.1444 21.0194 66.1736 22.922C66.1936 23.8948 66.0394 24.9285 65.4065 25.7155C64.7165 26.6194 63.5798 27.1857 62.4205 27.1506C56.491 27.1532 50.5615 27.1727 44.6321 27.1675C44.6587 25.6207 44.5563 24.0766 44.5842 22.5298C44.5842 16.0311 44.5842 9.53113 44.5576 3.03243L44.5616 2.93892C44.7477 2.91555 44.9365 2.89996 45.1266 2.89347ZM57.1066 4.35711C56.1733 4.51035 55.2227 4.37529 54.2867 4.51944C54.6165 4.64022 54.9728 4.62594 55.3198 4.63892C55.3636 4.77269 55.4088 4.90646 55.454 5.03892C55.5125 5.07009 55.6282 5.13243 55.6867 5.1623C55.6508 5.22464 55.6189 5.28828 55.5896 5.35191C55.797 5.74412 56.1334 6.04802 56.4605 6.34282C56.261 6.43633 56.0869 6.27789 55.9154 6.19996C55.8874 6.25191 55.8316 6.35581 55.8037 6.40776C56.3009 6.58048 56.8261 6.63892 57.3392 6.74802C57.314 6.89217 57.2236 6.99866 57.0694 7.0675C55.7957 6.70646 54.3678 6.77659 53.1793 7.37399C51.7355 8.05711 50.6626 9.42853 50.3568 10.9649C50.2039 11.6935 50.2664 12.4402 50.2584 13.1779C50.2691 13.6974 50.2225 14.2207 50.2903 14.7376L50.0896 14.7571C49.954 14.7194 49.8157 14.7078 49.6735 14.7233C49.6668 17.8831 49.6642 21.0454 49.6947 24.2065C49.8702 24.135 50.0457 24.0597 50.2292 24.0052C50.3794 24.0948 50.5416 24.1389 50.7171 24.1389C53.0237 24.161 55.3317 24.1506 57.6397 24.1519C57.8511 24.1584 58.0558 24.1259 58.2566 24.0558C58.3842 24.1857 58.5092 24.3181 58.6328 24.4519C58.1422 24.613 57.8777 25.0922 57.8391 25.5714C58.4121 25.787 59.0277 25.6558 59.6206 25.6649C60.7653 25.8454 61.9472 25.8454 63.0972 25.7065C63.8337 25.6662 64.3642 25.0792 64.6594 24.4701C64.896 23.8519 64.9213 23.1792 64.8136 22.5324C64.8109 21.061 64.9518 19.5857 64.8216 18.1155C64.7484 17.3181 64.9518 16.5272 64.8787 15.7311C64.8548 15.3987 64.8176 15.0675 64.8096 14.7337C64.8136 11.9194 64.8535 9.10776 64.8029 6.29347C64.7737 5.7597 64.537 5.24022 64.1874 4.83373C63.7593 4.34282 63.064 4.18308 62.4298 4.21035C61.5417 4.23243 60.6483 4.17009 59.7642 4.28438C58.8828 4.40256 57.9907 4.29866 57.1066 4.35711Z" fill="#BAD33C"/>
<path d="M3.02223 6.42464C3.01426 4.59607 4.712 2.98049 6.5746 2.98828C10.4966 2.98958 14.4185 2.95581 18.3392 2.98308C18.0746 3.12724 17.7874 3.24542 17.4777 3.23114C15.175 3.23243 12.8723 3.22594 10.5684 3.23243C9.90229 3.21815 9.23489 3.23373 8.57148 3.30776C7.59431 3.40906 6.5746 3.19088 5.63466 3.54672C4.73194 3.82334 3.97946 4.51555 3.62183 5.3675C3.24293 6.3701 3.43171 7.45841 3.38917 8.50127C3.41975 13.5675 3.39183 18.6337 3.4131 23.7C3.39183 24.7117 3.86512 25.8363 4.83298 26.3013C4.87154 26.4623 4.90876 26.6246 4.94599 26.7883C3.73749 26.2013 2.97703 24.8792 3.03154 23.5714C3.03021 17.8558 3.01558 12.1402 3.02223 6.42464Z" fill="#EBEBEB"/>
<path d="M18.3393 2.98312C27.0806 2.94416 35.8219 2.97793 44.5619 2.93896L44.5579 3.03247C44.5141 3.41299 44.4675 3.79221 44.437 4.17273C43.6592 3.99091 42.8682 4.08572 42.0851 4.17013C36.6343 4.18832 31.1834 4.18052 25.7325 4.16883C25.1289 4.15715 24.5253 4.17273 23.9244 4.21689C23.2384 4.14806 22.5497 4.19741 21.8624 4.16754C19.5651 4.01429 17.2611 4.1026 14.9611 4.06364C12.3899 4.06234 9.81864 4.04026 7.24743 4.04286C6.6146 4.04286 5.9339 4 5.3702 4.33767C4.77194 4.61299 4.41165 5.18182 4.13645 5.74286C4.04604 6.04935 4.01015 6.36883 4.00483 6.68702C4.02211 12.1857 4.02477 17.6844 4.02344 23.1844C3.97425 24.0286 4.19361 24.9312 4.82911 25.5364C5.33032 25.9273 5.90465 26.3403 6.58402 26.2857C11.3236 26.2727 16.0619 26.2506 20.8015 26.2584C21.6856 26.2416 22.5697 26.0584 23.4551 26.1961C24.0747 26.2922 24.6955 26.1818 25.3164 26.1507C31.2592 26.1286 37.2033 26.1312 43.1474 26.1416C43.5941 26.1455 44.0421 26.126 44.4888 26.0974C44.4875 26.3195 44.4862 26.5416 44.4862 26.7636C43.6034 26.8766 42.7113 26.8208 41.8232 26.8338C35.1279 26.8662 28.4327 26.826 21.7374 26.8416C19.6887 26.8091 17.6386 26.8571 15.5912 26.7948C13.6981 26.826 11.8022 26.8545 9.91038 26.7948C8.80292 26.6286 7.69015 26.9104 6.58269 26.7507C5.97113 26.7221 5.4061 26.4857 4.83309 26.3013C3.86523 25.8364 3.39194 24.7117 3.41321 23.7C3.39194 18.6338 3.41986 13.5675 3.38928 8.5013C3.43182 7.45845 3.24304 6.37013 3.62194 5.36754C3.97957 4.51559 4.73205 3.82338 5.63477 3.54676C6.57471 3.19091 7.59442 3.40909 8.57159 3.3078C9.235 3.23377 9.9024 3.21819 10.5685 3.23247C12.8725 3.22598 15.1751 3.23247 17.4778 3.23117C17.7875 3.24546 18.0747 3.12728 18.3393 2.98312Z" fill="#FDFDFD"/>
<path d="M18.3799 10.839C19.0872 10.8299 19.7958 10.8286 20.5031 10.8169C20.761 10.8338 21.0176 10.8598 21.2728 10.8974L21.2848 11.0169C20.3169 11.0273 19.3477 11.0208 18.3799 11.0247V10.839Z" fill="#FDFDFD"/>
<path d="M1.55176 4.64286C1.82829 4.08831 2.08887 3.5026 2.56482 3.07922C2.49569 3.31818 2.42788 3.55974 2.36806 3.8013C2.76424 3.86234 3.16442 3.89611 3.56592 3.9C3.37713 4.12208 3.20164 4.35585 3.04078 4.5987C2.54887 4.45715 2.03968 4.52728 1.55176 4.64286Z" fill="#696969"/>
<path d="M2.26653 15.2584C2.38486 14.4116 2.15619 13.5039 2.5218 12.7039C2.54706 14.5207 2.55237 16.3389 2.53376 18.1571C2.46064 17.6246 2.42341 17.0896 2.39416 16.5532C2.33833 17.0207 2.31041 17.4909 2.30376 17.9623C2.21867 17.8909 2.13359 17.8181 2.0485 17.7467C1.97405 17.8714 1.89827 17.9961 1.82382 18.1207C1.57786 17.5129 1.74937 16.8389 1.53 16.2246C1.4489 15.3155 1.45821 14.3987 1.53931 13.4896C1.7281 13.9714 1.70018 14.4909 1.69486 14.9974C1.84376 14.887 1.99399 14.7753 2.14289 14.6636C2.18411 14.8623 2.22532 15.0597 2.26653 15.2584Z" fill="#E8E8E8"/>
<path d="M1.55124 4.64284C2.03916 4.52725 2.54835 4.45712 3.04026 4.59868C2.90333 4.86492 2.80096 5.14543 2.7172 5.43115C2.34096 5.46621 1.96072 5.46881 1.58315 5.43375C1.43691 5.91167 1.37708 6.41037 1.42228 6.90907C1.76662 6.92595 2.11096 6.94543 2.45662 6.96362C2.46061 7.06492 2.46859 7.26881 2.47257 7.37011C2.12425 7.30518 1.76795 7.31297 1.41697 7.34673C1.40633 7.49998 1.39702 7.65453 1.38772 7.80777C1.38772 7.90517 1.38506 8.09868 1.38373 8.19608C1.39304 8.43894 1.41032 8.6818 1.42096 8.92466C1.40234 13.461 1.42361 17.9974 1.40766 22.5337C1.405 22.9402 1.42228 23.3467 1.43957 23.7545C1.44223 23.948 1.4502 24.1428 1.46217 24.3363C1.47015 24.413 1.48477 24.5649 1.49142 24.6415C1.37176 24.2532 1.29598 23.8506 1.29864 23.4441C1.25743 17.6376 1.32656 11.8311 1.24147 6.02595C1.23349 5.54803 1.41032 5.09349 1.55124 4.64284Z" fill="#575757"/>
<path d="M66.1338 4.64548C66.4981 4.64548 66.873 4.59873 67.2306 4.68314C67.458 4.80262 67.5856 5.04288 67.7371 5.23769C67.7597 5.27146 67.8036 5.33639 67.8249 5.37016L67.8156 5.45587C67.7571 5.98314 67.7717 6.51431 67.7305 7.04288C67.3808 7.05587 67.0325 7.06886 66.6842 7.08444C66.6363 7.30652 66.5858 7.5286 66.5486 7.75327C66.5512 7.42211 66.53 7.08185 66.6217 6.75977C66.9062 6.56236 67.2798 6.65847 67.6055 6.6312C67.6201 6.40522 67.6361 6.17925 67.6441 5.95327C67.5909 5.76496 67.6029 5.53899 67.4699 5.38314C67.1176 5.29223 66.7493 5.32211 66.3904 5.30262C66.3146 5.07925 66.2322 4.85977 66.1338 4.64548Z" fill="#525252"/>
<path d="M66.3906 5.30261C66.7496 5.32209 67.1178 5.29222 67.4702 5.38313C67.6031 5.53898 67.5911 5.76495 67.6443 5.95326C67.3093 6.02988 66.9716 6.08703 66.6313 6.12209C66.5528 5.84807 66.477 5.57404 66.3906 5.30261Z" fill="white"/>
<path d="M60.8233 27.8857C62.2392 27.9234 63.6511 27.7377 65.067 27.8377C64.9806 27.9831 64.8942 28.1286 64.8104 28.2753C64.9793 28.226 65.1508 28.1792 65.3209 28.1234C65.0816 28.2572 64.845 28.4156 64.5685 28.4624C63.8519 28.5727 63.1512 28.7948 62.4187 28.7935C44.0719 28.8143 25.7237 28.8026 7.37556 28.8208C6.21494 28.8507 4.88546 28.7611 4.01465 27.9143C6.9528 27.9195 9.89094 28.0013 12.8278 27.9013C28.8254 27.887 44.8244 27.8948 60.8233 27.8857Z" fill="white"/>
<path d="M1.58385 5.43375C1.96142 5.46881 2.34166 5.46622 2.7179 5.43115C2.65009 5.64804 2.59293 5.87011 2.49455 6.07661C2.22333 6.29349 1.8564 6.12726 1.54663 6.10518C1.54663 6.2805 1.54663 6.45713 1.54796 6.63245C1.8564 6.66362 2.24859 6.53375 2.49322 6.77271C2.64611 7.06881 2.56235 7.41557 2.52778 7.72855L2.48125 7.71687C2.47992 7.62985 2.4746 7.45713 2.47327 7.37011C2.46929 7.26881 2.46131 7.06492 2.45732 6.96362C2.11166 6.94544 1.76732 6.92596 1.42298 6.90907C1.37778 6.41037 1.43761 5.91167 1.58385 5.43375Z" fill="#434343"/>
<path d="M67.7306 7.04282C67.7718 6.51425 67.7572 5.98308 67.8157 5.45581C67.8795 5.90516 67.9393 6.35711 67.9327 6.81295C67.9314 12.3961 67.9486 17.9792 67.9407 23.5623C67.9579 25.3974 66.9037 27.1597 65.3216 28.1233C65.1514 28.1792 64.9799 28.2259 64.8111 28.2753C64.8948 28.1285 64.9812 27.9831 65.0677 27.8376C63.6518 27.7376 62.2399 27.9233 60.824 27.8857C44.825 27.8948 28.826 27.887 12.8284 27.9013C9.89161 28.0013 6.95346 27.9194 4.01531 27.9143C4.88612 28.761 6.2156 28.8506 7.37623 28.8207C25.7244 28.8026 44.0725 28.8143 62.4193 28.7935C63.1519 28.7948 63.8525 28.5727 64.5691 28.4623C63.8831 28.8545 63.0548 28.8649 62.2837 28.935C43.7588 28.9493 25.2325 28.9714 6.70751 28.9792C5.15334 29.0298 3.63109 28.3169 2.6034 27.1961C1.67543 26.222 1.21542 24.8948 1.20478 23.5753C1.19415 17.9896 1.19548 12.4026 1.1875 6.81685C1.1875 6.55191 1.20744 6.28828 1.24201 6.02594C1.3271 11.8311 1.25796 17.6376 1.29918 23.4441C1.29652 23.8506 1.3723 24.2532 1.49196 24.6415C1.53716 24.7987 1.58901 24.9545 1.64485 25.1091C1.76849 25.5272 1.96525 25.9194 2.19392 26.2922C2.3641 26.5402 2.50901 26.8493 2.79884 26.9805C3.25618 27.0636 3.72548 26.9701 4.16687 26.8467C4.71462 27.2039 5.31421 27.5104 5.96433 27.6428C7.00664 27.7662 8.05826 27.7402 9.10456 27.6935C26.8584 27.6571 44.6123 27.674 62.3662 27.6532C63.3247 27.6532 64.2274 27.2623 65.0065 26.7428C65.654 26.9662 66.6072 27.0311 66.9236 26.2883C67.1084 25.9961 67.264 25.6857 67.3863 25.3636C67.494 25.0623 67.5857 24.7571 67.6508 24.4454C67.8011 23.4246 67.7412 22.3909 67.7492 21.3636C67.7505 20.061 67.7426 18.7584 67.7426 17.4571C67.724 16.0428 67.704 14.6298 67.6987 13.2156C67.7705 11.6987 67.7213 10.1779 67.7213 8.65971C67.7107 8.3688 67.6907 8.07789 67.6628 7.78828C67.3171 7.78438 66.9728 7.78568 66.6285 7.78568C66.6271 7.87789 66.6218 8.0623 66.6192 8.15451C66.6112 8.3675 66.5992 8.58179 66.5952 8.79607L66.5939 8.82594C66.5753 8.4688 66.5474 8.11165 66.5487 7.75321C66.5859 7.52854 66.6364 7.30646 66.6843 7.08438C67.0326 7.0688 67.381 7.05581 67.7306 7.04282Z" fill="#636363"/>
<path d="M8.40197 6.01042C9.27277 5.44288 10.4427 5.54938 11.3388 6.00912C11.2311 6.33249 11.1154 6.65457 10.9971 6.97535C10.5424 6.7299 10.0372 6.5247 9.50543 6.60912C9.00954 6.63509 8.70642 7.29483 9.0215 7.67275C9.54399 8.33379 10.464 8.47925 11.0702 9.04418C11.7589 9.67535 11.848 10.8948 11.1367 11.5429C10.3949 12.2299 9.25416 12.2221 8.32353 11.9792C8.1374 11.9 7.95526 11.8143 7.76913 11.7338C7.87283 11.3883 8.00844 11.0533 8.14936 10.7208C8.75029 11.0494 9.50012 11.3611 10.1702 11.0299C10.589 10.8299 10.5757 10.2598 10.3231 9.93639C9.6889 9.11821 8.36474 9.08055 7.91272 8.09223C7.5378 7.38185 7.80237 6.51691 8.40197 6.01042Z" fill="#254E58"/>
<path d="M13.4965 5.73377C14.1719 5.55585 14.8964 5.58052 15.5519 5.81949C15.6835 5.88312 15.96 5.95845 15.8656 6.15715C15.8058 6.44286 15.6968 6.71429 15.6157 6.99481C15.1251 6.69481 14.5401 6.49091 13.9565 6.63117C13.6294 6.72338 13.5483 7.07923 13.4273 7.34546C13.8913 8.37663 15.258 8.41559 15.8935 9.28832C16.4107 9.98442 16.3549 11.087 15.625 11.6273C14.927 12.2403 13.9286 12.0844 13.0711 12.0468C12.8198 11.9364 12.5778 11.8078 12.3398 11.674C12.4821 11.3558 12.6177 11.0338 12.752 10.713C13.325 11.0221 14.0123 11.3273 14.6651 11.0636C14.9456 10.9831 15.044 10.7 15.153 10.4675C14.9483 9.47663 13.8328 9.25845 13.1003 8.75455C12.3079 8.26364 12.1098 7.1078 12.6549 6.37403C12.8583 6.07923 13.1827 5.89741 13.4965 5.73377Z" fill="#254E58"/>
<path d="M17.2563 12.0428C17.2603 9.93502 17.2337 7.82593 17.2629 5.71814C17.6299 5.72333 17.9981 5.72463 18.3651 5.72204C18.389 7.42723 18.3717 9.13372 18.3797 10.8389V11.0246C19.3476 11.0207 20.3168 11.0272 21.2846 11.0168C21.2939 11.3571 21.2899 11.6987 21.2766 12.0389C19.9365 12.0311 18.5964 12.0389 17.2563 12.0428Z" fill="#254E58"/>
<path d="M8.13103 13.5507C8.76785 13.2598 9.53762 13.3117 10.1465 13.6494C10.0402 13.8494 10.0216 14.126 9.85404 14.2832C9.59612 14.2195 9.35547 14.1026 9.09622 14.0455C8.78512 13.9793 8.41953 14.1793 8.37566 14.5C8.32647 14.8286 8.64953 15.0416 8.89549 15.1949C9.40601 15.4897 10.0721 15.7052 10.2648 16.3169C10.5294 16.9104 10.1851 17.5832 9.632 17.8806C8.94865 18.139 8.18421 18.0754 7.53809 17.7468C7.64179 17.5013 7.74814 17.2572 7.85317 17.0117C8.16161 17.1884 8.49796 17.3078 8.84362 17.3962C9.0909 17.2949 9.45653 17.2663 9.51635 16.9507C9.6041 16.3988 9.01913 16.1091 8.60034 15.8988C8.10976 15.6754 7.57531 15.3156 7.55936 14.7273C7.47427 14.2481 7.78537 13.8481 8.13103 13.5507Z" fill="#254E58"/>
<path d="M11.6049 14.8364C12.0397 14.5455 12.6113 14.6143 13.1019 14.6858C13.869 14.9247 14.212 15.7676 14.0857 16.5001C13.2681 16.5598 12.4465 16.513 11.6275 16.5299C11.6036 17.4117 12.848 17.6624 13.405 17.1065C13.5141 17.3117 13.6138 17.5221 13.7161 17.7312C12.9836 18.1001 11.9891 18.191 11.3217 17.6494C10.5094 16.9078 10.6437 15.4039 11.6049 14.8364ZM11.6421 15.9624C12.2045 15.965 12.7669 15.9637 13.3279 15.9611C13.2481 15.6871 13.1312 15.3559 12.8068 15.2897C12.2976 15.0624 11.7365 15.4559 11.6421 15.9624Z" fill="#254E58"/>
<path d="M14.8263 15.213C15.4538 14.552 16.5586 14.3611 17.339 14.8767C17.2726 15.0767 17.1795 15.265 17.0931 15.4572C16.778 15.3403 16.4483 15.1546 16.0986 15.239C15.1215 15.4286 15.0244 17.0637 15.983 17.3455C16.3858 17.478 16.7833 17.3169 17.1183 17.1039C17.2154 17.313 17.3124 17.5208 17.4082 17.7312C16.9189 17.9546 16.3831 18.0819 15.8407 18.0104C15.281 17.8948 14.7439 17.5273 14.599 16.9624C14.3849 16.3754 14.5538 15.752 14.8263 15.213Z" fill="#254E58"/>
<path d="M18.038 14.6519C18.2893 14.6493 18.5419 14.6493 18.7945 14.6467C18.8902 15.4506 18.7653 16.2636 18.8769 17.0636C19.1123 17.5844 19.8076 17.3675 20.1506 17.0688C20.2782 16.2675 20.1705 15.4506 20.2091 14.6428C20.4723 14.6454 20.7356 14.648 20.9988 14.6493C21.0041 15.7519 20.9868 16.8532 21.0094 17.9545C20.7223 17.8896 20.2942 18.0701 20.1413 17.7389C19.7305 17.9285 19.2652 18.113 18.8091 17.9636C18.3731 17.8805 18.0726 17.4714 18.054 17.0493C18.0154 16.2506 18.05 15.4506 18.038 14.6519Z" fill="#254E58"/>
<path d="M8.66604 19.9247C9.368 19.5663 10.2122 19.6663 10.9262 19.9351C10.8304 20.1766 10.7307 20.4169 10.619 20.652C10.1471 20.3546 9.48234 20.2624 9.02234 20.6325C8.28714 21.2403 8.20737 22.4182 8.71656 23.1857C9.16592 23.8403 10.2029 23.7702 10.7001 23.2052C10.8238 23.426 10.9488 23.6455 11.0751 23.8663C10.7347 24.1182 10.3399 24.2935 9.92107 24.3779C9.21777 24.3948 8.41344 24.239 7.99864 23.6247C7.2302 22.4805 7.42829 20.687 8.66604 19.9247Z" fill="#254E58"/>
<path d="M30.0706 20.2844C30.3312 20.1844 30.5931 20.0844 30.855 19.9818C30.8577 20.2974 30.859 20.6143 30.8564 20.9312C31.1648 20.9377 31.4746 20.9364 31.783 20.9377C31.787 21.148 31.791 21.3571 31.787 21.5675C31.4772 21.5636 31.1688 21.5636 30.859 21.5662C30.9109 22.2467 30.7287 22.9675 31.0146 23.6143C31.3164 23.6636 31.6301 23.6766 31.9106 23.5338C31.9066 23.7714 31.9066 24.0104 31.9027 24.2493C31.3071 24.3364 30.4495 24.4429 30.177 23.761C29.9683 23.0493 30.1358 22.2922 30.0666 21.5623C29.9683 21.5584 29.7728 21.5506 29.6758 21.5467C29.6811 21.3532 29.6864 21.1597 29.6917 20.9662C29.7888 20.9558 29.9842 20.9351 30.0813 20.9247C30.0773 20.7104 30.0733 20.4974 30.0706 20.2844Z" fill="#254E58"/>
<path d="M12.703 20.9208C12.9675 20.9182 13.2321 20.9195 13.4967 20.9078C14.0205 21.0871 14.4964 21.4637 14.6187 22.0169C14.7105 22.5676 14.745 23.1961 14.4113 23.6819C13.8184 24.6117 12.1446 24.5494 11.6567 23.5481C11.1368 22.6013 11.5583 21.1832 12.703 20.9208ZM12.5514 21.7546C12.1938 22.178 12.219 22.8039 12.3879 23.3026C12.5687 23.7403 13.1324 23.8026 13.5219 23.6117C13.6655 23.4026 13.8423 23.1923 13.8503 22.9286C13.9022 22.4507 13.8928 21.8065 13.377 21.5676C13.0938 21.5299 12.7428 21.5 12.5514 21.7546Z" fill="#254E58"/>
<path d="M23.1768 21.3909C23.8362 20.7493 25.054 20.6948 25.6683 21.4207C26.0259 21.8026 26.0631 22.3428 26.0166 22.835C25.179 22.8493 24.3428 22.8337 23.5052 22.8506C23.6036 23.1298 23.7113 23.4428 24.0091 23.5779C24.4438 23.7571 24.9437 23.6636 25.3465 23.4467C25.4516 23.6259 25.5553 23.8052 25.6629 23.9844C25.5393 24.0584 25.4117 24.1272 25.2827 24.1922C24.5595 24.4026 23.6222 24.4065 23.0984 23.7909C22.54 23.1 22.6384 22.0662 23.1768 21.3909ZM23.5717 22.248C24.1327 22.2584 24.6924 22.2545 25.2521 22.2506C25.1936 21.8376 24.8453 21.4662 24.3906 21.5428C23.9599 21.4987 23.6687 21.8831 23.5717 22.248Z" fill="#254E58"/>
<path d="M15.3263 21.0052C15.5191 21.0026 15.7119 21.0013 15.9047 20.9987C15.9339 21.0636 15.9911 21.1948 16.0203 21.2598C16.1719 21.1572 16.3234 21.052 16.4697 20.9416C17.1025 20.813 17.9042 20.9429 18.1688 21.6C18.4307 22.4637 18.2565 23.3818 18.3084 24.2688C18.0411 24.2701 17.7739 24.2701 17.508 24.2688C17.4774 23.4961 17.5891 22.7078 17.4389 21.9455C17.2541 21.3572 16.463 21.5117 16.1067 21.8533C16.1134 22.6611 16.1147 23.4688 16.1081 24.2779C15.8448 24.2753 15.5816 24.274 15.3184 24.2753C15.3356 23.1857 15.3237 22.0948 15.3263 21.0052Z" fill="#254E58"/>
<path d="M19.1143 21.0194C19.3044 21.0064 19.4945 21.0012 19.6859 21.0012C19.7298 21.0532 19.8162 21.1597 19.8588 21.2129C20.1871 21.0207 20.5448 20.8415 20.9423 20.9038C21.5525 20.9103 22.0564 21.4324 22.0803 22.0168C22.1136 22.7662 22.0923 23.5168 22.091 24.2675C21.8437 24.2103 21.4502 24.4064 21.3092 24.1389C21.268 23.4051 21.3677 22.6636 21.256 21.935C21.0779 21.3844 20.2802 21.4662 19.9492 21.8337C19.896 22.6428 19.9478 23.4558 19.9306 24.2675C19.6607 24.2623 19.3895 24.2675 19.1196 24.2753C19.1395 23.1909 19.1502 22.1038 19.1143 21.0194Z" fill="#254E58"/>
<path d="M34.5383 21.5234C35.1206 20.652 36.6721 20.6494 37.2159 21.5611C37.5483 22.1195 37.5323 22.8182 37.3263 23.4169C36.829 24.6481 34.7378 24.5949 34.3389 23.3169C34.1887 22.726 34.1674 22.0442 34.5383 21.5234ZM35.3732 21.6767C35.0037 21.9884 35.0528 22.5079 35.0808 22.9364C35.0834 23.3156 35.4091 23.7092 35.8253 23.6689C36.2215 23.726 36.5193 23.3819 36.6083 23.0403C36.7519 22.5338 36.6628 21.9416 36.2693 21.5611C35.9728 21.5442 35.6072 21.4429 35.3732 21.6767Z" fill="#254E58"/>
<path d="M38.1177 20.9351C38.2919 20.9325 38.4674 20.9312 38.6415 20.9286C38.6854 20.9961 38.7731 21.1325 38.817 21.2C39.4233 20.7195 40.443 20.7546 40.8937 21.4234C41.2274 22.3247 41.012 23.313 41.0598 24.2507C40.8019 24.2481 40.544 24.2468 40.2874 24.2455C40.2595 23.5013 40.314 22.7546 40.2555 22.013C40.1731 21.3325 38.9978 21.3793 38.8768 22C38.8742 22.7507 38.9965 23.5208 38.8343 24.2598C38.6043 24.2546 38.3756 24.2533 38.147 24.2559C38.1004 23.7468 38.1257 23.2364 38.1084 22.7273C38.1257 22.1299 38.1137 21.5325 38.1177 20.9351Z" fill="#254E58"/>
<path d="M53.1789 7.37404C54.3674 6.77664 55.7953 6.70651 57.069 7.06755C58.8305 7.59872 60.2517 9.09222 60.6346 10.8572C60.8633 12.1221 60.7197 13.4169 60.7516 14.6948L60.5256 14.6909C60.3754 13.1559 60.7835 11.5299 60.1201 10.0727C60.0031 9.78573 59.8356 9.52079 59.6295 9.28833C58.9342 8.42599 58.0421 7.67274 56.9466 7.35846C55.54 6.90521 53.9367 7.17015 52.7309 7.99742C52.211 8.32599 51.8255 8.80391 51.416 9.24807C50.7925 9.97144 50.5239 10.9429 50.5133 11.8766C50.5026 12.826 50.5292 13.7753 50.496 14.7234L50.2899 14.7377C50.2221 14.2208 50.2687 13.6974 50.258 13.1779C50.266 12.4403 50.2035 11.6935 50.3564 10.965C50.6622 9.42859 51.7351 8.05716 53.1789 7.37404Z" fill="#66656F"/>
<path d="M52.7309 7.99746C53.9367 7.17018 55.5401 6.90525 56.9467 7.35849C58.0421 7.67278 58.9342 8.42603 59.6295 9.28836C59.5445 9.30135 59.373 9.32733 59.2879 9.34161C58.8917 9.07018 58.6005 8.66629 58.1525 8.46369C57.3588 7.87018 56.3643 7.5494 55.3659 7.56499C54.4047 7.62992 53.4568 7.97018 52.7202 8.58187C52.2749 8.79226 51.9465 9.1559 51.6513 9.53252C51.5928 9.46239 51.4745 9.31953 51.416 9.24811C51.8255 8.80395 52.211 8.32603 52.7309 7.99746Z" fill="#E1E0E0"/>
<path d="M1.41694 7.34673C1.76793 7.31296 2.12423 7.30517 2.47255 7.3701C2.47388 7.45711 2.4792 7.62984 2.48053 7.71685C2.11625 7.73634 1.75064 7.76101 1.3877 7.80776C1.397 7.65452 1.40631 7.49997 1.41694 7.34673Z" fill="#707070"/>
<path d="M25.737 15.2883C26.0375 15.1298 26.3765 15.2493 26.6703 15.361C26.7713 15.5467 26.8578 15.7402 26.9123 15.9454C26.3512 15.9467 25.7915 15.948 25.2305 15.9441C25.3315 15.6909 25.4458 15.3831 25.737 15.2883Z" fill="white"/>
<path d="M52.7209 8.58188C53.4574 7.97019 54.4053 7.62993 55.3665 7.565C56.365 7.54941 57.3594 7.87019 58.1531 8.4637C58.7421 9.1572 59.464 9.81305 59.6421 10.7403C59.2459 10.1663 58.9588 9.50006 58.3951 9.05461C57.5681 8.3585 56.4514 8.07539 55.3758 8.12603C54.2591 8.11694 53.1157 8.50915 52.3433 9.31305C51.8275 9.82993 51.5802 10.5221 51.2598 11.1559C51.3528 10.1286 52.092 9.34681 52.7209 8.58188Z" fill="#7F7E80"/>
<path d="M1.38778 7.80783C1.75073 7.76107 2.11633 7.7364 2.48061 7.71692C2.48859 7.80913 2.50188 7.99484 2.50986 8.08835C2.13229 8.09354 1.75471 8.12601 1.38379 8.19614C1.38512 8.09874 1.38778 7.90523 1.38778 7.80783Z" fill="#878787"/>
<path d="M2.48039 7.71692L2.52692 7.72861C2.50299 8.47796 2.55617 9.22861 2.52027 9.97796C2.18391 10.5429 2.34611 11.2182 2.30357 11.8377C2.21848 11.7754 2.13206 11.713 2.04565 11.6507C1.926 11.6624 1.80634 11.6741 1.68669 11.6858C1.69201 11.1364 1.6827 10.5858 1.58565 10.0429C1.49391 11.187 1.4979 12.3416 1.53912 13.4896C1.45802 14.3987 1.44871 15.3156 1.52981 16.2247C1.41282 18.6663 1.54311 21.1143 1.45403 23.5559L1.43941 23.7546C1.42212 23.3468 1.40484 22.9403 1.4075 22.5338C1.42345 17.9974 1.40218 13.4611 1.42079 8.92471C1.46334 8.81302 1.50854 8.70133 1.55374 8.59095C1.82761 8.62601 2.16663 8.81562 2.38998 8.57017C2.44582 8.41302 2.48438 8.25198 2.50964 8.08835C2.50166 7.99484 2.48837 7.80913 2.48039 7.71692Z" fill="#D2D2D2"/>
<path d="M1.38379 8.19605C1.75471 8.12592 2.13229 8.09345 2.50986 8.08826C2.4846 8.25189 2.44604 8.41293 2.39021 8.57007C2.16685 8.81553 1.82784 8.62592 1.55396 8.59085C1.50876 8.70124 1.46356 8.81293 1.42101 8.92462C1.41038 8.68176 1.3931 8.43891 1.38379 8.19605Z" fill="#9F9F9F"/>
<path d="M2.79187 24.9987C2.92748 25.3207 3.10164 25.6259 3.28112 25.9272C3.26517 25.974 3.23459 26.0662 3.21864 26.1129C2.87962 26.1857 2.53661 26.2376 2.19361 26.2922C1.96494 25.9194 1.76817 25.5272 1.64453 25.109C1.69505 25.1714 1.79742 25.2948 1.84927 25.3558C2.15904 25.2974 2.47014 25.2389 2.77592 25.1597L2.79187 24.9987Z" fill="#9F9F9F"/>
<path d="M66.6187 8.15454C66.9284 8.23896 67.2488 8.27922 67.5706 8.31039C67.6211 8.42597 67.6716 8.54285 67.7208 8.65974C67.7208 10.1779 67.77 11.6987 67.6982 13.2156C67.6011 12.3636 67.6623 11.5052 67.5985 10.6519C67.6623 10.0493 67.6477 9.44285 67.6051 8.83896C67.2674 8.83506 66.9298 8.82207 66.5947 8.7961C66.5987 8.58181 66.6107 8.36753 66.6187 8.15454Z" fill="#B5B5B5"/>
<path d="M53.2041 8.98441C54.4166 8.06882 56.1821 7.98051 57.485 8.77012C58.5898 9.40779 59.317 10.6247 59.325 11.8792C59.3397 12.8182 59.321 13.7571 59.3317 14.6961L59.22 14.6974C56.7113 14.7 54.2025 14.7039 51.6938 14.7013C51.6792 13.7623 51.6712 12.8221 51.6845 11.8831C51.7124 10.7584 52.2775 9.65584 53.2041 8.98441Z" fill="#BAD33C"/>
<path d="M58.1523 8.46362C58.6004 8.66622 58.8915 9.07012 59.2877 9.34155C59.3728 9.32726 59.5443 9.30129 59.6294 9.2883C59.8355 9.52077 60.003 9.7857 60.12 10.0727C60.7834 11.5299 60.3752 13.1558 60.5255 14.6909C60.2915 14.6896 60.0575 14.6922 59.8235 14.6935C59.7982 13.3779 59.9963 12.026 59.6414 10.7402C59.4632 9.81297 58.7413 9.15713 58.1523 8.46362Z" fill="#A8A8A8"/>
<path d="M51.6514 9.53244C51.9466 9.15581 52.2749 8.79218 52.7203 8.58179C52.0915 9.34672 51.3523 10.1285 51.2592 11.1558C51.089 12.3285 51.1888 13.522 51.1861 14.7026C50.9548 14.7052 50.7261 14.7104 50.4961 14.7233C50.5293 13.7753 50.5027 12.8259 50.5134 11.8766C50.524 10.9428 50.7926 9.9714 51.4161 9.24802C51.4746 9.31945 51.5929 9.46231 51.6514 9.53244Z" fill="#A8A9A9"/>
<path d="M66.5936 8.82601L66.5949 8.79614C66.6348 9.03251 66.6733 9.26887 66.6999 9.50783C66.5789 11.0351 66.7092 12.5676 66.6973 14.0974C66.668 15.2533 66.8621 16.4013 66.8408 17.5572C67.0363 17.5091 67.2304 17.4611 67.4258 17.4117C67.4404 16.9909 67.4777 16.5702 67.5521 16.1546C67.5907 16.5922 67.6066 17.0312 67.6146 17.4715C67.6319 19.5208 67.6957 21.5728 67.6186 23.6208C67.3367 23.5013 67.0323 23.5429 66.7411 23.5896C66.6986 23.7351 66.6587 23.8806 66.6202 24.0273L66.5869 24.1429C66.6069 19.0377 66.5989 13.9325 66.5936 8.82601Z" fill="#F5F5F5"/>
<path d="M12.5381 20.761C12.9103 20.7026 13.2892 20.7013 13.6615 20.7571L13.4966 20.9078C13.2321 20.9195 12.9675 20.9182 12.7029 20.9208L12.5381 20.761Z" fill="#F5F5F5"/>
<path d="M66.5947 8.79614C66.9298 8.82212 67.2674 8.8351 67.6051 8.839C67.6477 9.4429 67.6623 10.0494 67.5985 10.652C67.4921 11.0935 67.4124 11.5403 67.3552 11.9896C67.2621 11.926 67.1691 11.8611 67.0773 11.7974C66.9936 11.8559 66.9098 11.913 66.8261 11.9715C66.7662 11.1507 66.8141 10.3247 66.6998 9.50783C66.6732 9.26887 66.6346 9.03251 66.5947 8.79614Z" fill="#D4D4D4"/>
<path d="M66.7003 9.50781C66.8146 10.3247 66.7668 11.1507 66.8266 11.9714C66.9103 11.913 66.9941 11.8559 67.0779 11.7974C67.1696 11.8611 67.2627 11.926 67.3557 11.9896C67.4129 11.5403 67.4927 11.0935 67.599 10.652C67.6628 11.5052 67.6017 12.3637 67.6987 13.2156C67.704 14.6299 67.724 16.0429 67.7426 17.4572L67.615 17.4714C67.607 17.0312 67.591 16.5922 67.5525 16.1546C67.478 16.5702 67.4408 16.9909 67.4262 17.4117C67.2307 17.4611 67.0366 17.5091 66.8412 17.5572C66.8625 16.4013 66.6684 15.2533 66.6976 14.0974C66.7096 12.5676 66.5793 11.0351 66.7003 9.50781Z" fill="#E3E3E3"/>
<path d="M1.58615 10.0428C1.6832 10.5857 1.69251 11.1363 1.68719 11.6857C1.80684 11.674 1.92649 11.6623 2.04615 11.6506C2.13256 11.713 2.21898 11.7753 2.30407 11.8376C2.34661 11.2182 2.18441 10.5428 2.52077 9.97791C2.5354 10.8857 2.55534 11.7961 2.5221 12.7039C2.15649 13.5039 2.38517 14.4117 2.26684 15.2584C2.22563 15.0597 2.18441 14.8623 2.1432 14.6636C1.9943 14.7753 1.84407 14.887 1.69517 14.9974C1.70048 14.4909 1.7284 13.9714 1.53962 13.4896C1.4984 12.3415 1.49441 11.187 1.58615 10.0428Z" fill="#DDDDDD"/>
<path d="M22.6462 14.8857C23.077 14.5689 23.6393 14.4857 24.1432 14.6792C24.0369 14.9078 23.9159 15.1299 23.7922 15.3494C23.3375 15.0052 22.7007 15.3779 22.6542 15.8974C22.613 16.5779 22.6529 17.2611 22.6382 17.9429C22.371 17.939 22.1038 17.9338 21.8379 17.9182C21.8525 16.8312 21.8419 15.7442 21.8406 14.6572C22.0985 14.6494 22.3564 14.6429 22.6156 14.6338C22.6223 14.6974 22.6382 14.8221 22.6462 14.8857Z" fill="#254E58"/>
<path d="M61.4311 18.4948C62.3856 17.5961 63.3229 16.6779 64.2349 15.7363C64.2243 16.922 64.2509 18.1078 64.227 19.2922C64.2429 19.4545 64.106 19.5623 64.0089 19.6701C63.1169 20.5311 62.2327 21.4 61.3553 22.2753C61.0668 22.5584 60.7743 22.8376 60.4911 23.1246C60.2731 23.348 60.0404 23.5571 59.7918 23.748C59.6442 23.8662 59.5073 23.9974 59.3863 24.1402C59.2201 24.3363 59.0473 24.5272 58.8665 24.7104C58.7881 24.6233 58.711 24.5376 58.6325 24.4519C58.5089 24.3181 58.3839 24.1857 58.2563 24.0558C58.1167 23.913 57.9758 23.7727 57.8308 23.635C57.198 23.0376 56.5692 22.435 55.9563 21.8194C55.8127 21.7104 55.838 21.5259 55.83 21.3714C55.8286 20.2506 55.8499 19.1311 55.8193 18.0104C56.0055 18.2091 56.1956 18.4039 56.3923 18.5935C56.8896 19.0727 57.3788 19.561 57.8814 20.0363C58.2018 20.3506 58.5235 20.6649 58.8346 20.9883C58.9489 20.8948 59.0633 20.8026 59.1776 20.7078C59.397 20.5052 59.603 20.2896 59.8118 20.0753C60.0697 19.8168 60.3356 19.5649 60.5988 19.3117C60.878 19.0415 61.1479 18.7623 61.4311 18.4948ZM59.0553 21.0532C58.9769 21.1597 58.8107 21.2649 58.7229 21.1078C57.8933 20.2519 56.98 19.4727 56.1863 18.5857C56.1344 18.574 56.0307 18.5519 55.9789 18.5415C56.0081 19.5259 55.9762 20.5117 55.9962 21.4974C55.9789 21.7493 56.2488 21.8805 56.395 22.0506C57.2073 22.8584 58.0648 23.6272 58.8386 24.4701C60.6134 22.8143 62.274 21.0402 64.0727 19.413C64.1219 18.3065 64.0914 17.1987 64.0847 16.0909C62.4362 17.7714 60.7211 19.3896 59.0553 21.0532Z" fill="white"/>
<path d="M24.7322 15.2117C25.3597 14.3922 26.7902 14.3299 27.4098 15.187C27.7275 15.5584 27.689 16.0636 27.6624 16.5156C26.8381 16.5234 26.0152 16.513 25.1909 16.5247C25.2693 16.8506 25.4275 17.2065 25.7918 17.2987C26.2106 17.4831 26.6453 17.2766 27.0389 17.1377C27.1412 17.3221 27.2303 17.5143 27.3181 17.7065C27.1239 17.7857 26.9298 17.8675 26.7291 17.9325C25.9726 18.1182 24.9954 17.9753 24.6033 17.2364C24.2948 16.6052 24.3413 15.8026 24.7322 15.2117ZM26.9126 15.9455C26.8581 15.7403 26.7716 15.5467 26.6706 15.361C26.3768 15.2493 26.0378 15.1299 25.7373 15.2883C25.4461 15.3831 25.3318 15.6909 25.2308 15.9442" fill="#254E58"/>
<path d="M32.9243 19.7194C33.4667 19.3792 33.8975 20.3636 33.2926 20.5298C32.7781 20.7493 32.4231 19.9337 32.9243 19.7194Z" fill="#254E58"/>
<path d="M32.3019 20.9376C32.7061 20.9389 33.1116 20.9259 33.5171 20.9441C33.5131 22.048 33.5397 23.1532 33.5078 24.2584C33.2485 24.2545 32.9879 24.2545 32.7287 24.2545C32.722 23.3584 32.734 22.4636 32.7194 21.5675C32.613 21.5701 32.4003 21.5753 32.2939 21.5779C32.2966 21.3636 32.2993 21.1506 32.3019 20.9376Z" fill="#254E58"/>
<path d="M27.307 21.1013C27.8109 20.8597 28.4291 20.8078 28.9529 21.0182C29.0407 21.0571 29.2162 21.1363 29.3039 21.1753C29.2082 21.3636 29.1112 21.5519 29.0154 21.7402C28.9755 21.7285 28.8958 21.7065 28.8572 21.6961C28.4105 21.4571 27.7511 21.4467 27.4466 21.9065C27.1183 22.4298 27.1475 23.3169 27.7896 23.6026C28.2164 23.7363 28.687 23.6571 29.062 23.4233C29.1271 23.6285 29.3239 23.8259 29.2627 24.048C28.5408 24.4402 27.5051 24.4506 26.8843 23.8662C26.1438 23.0883 26.3113 21.6052 27.307 21.1013Z" fill="#254E58"/>
<path d="M60.5261 14.6909L60.7521 14.6948C60.8877 14.7013 61.0233 14.7117 61.1589 14.7273C61.0818 14.7623 60.9263 14.8325 60.8478 14.8675C60.2761 15.0649 59.6659 15.0429 59.0703 15.0571C59.1075 14.9675 59.1833 14.787 59.2205 14.6974L59.3322 14.6961C59.4559 14.6961 59.7018 14.6948 59.8241 14.6935C60.0581 14.6922 60.2921 14.6896 60.5261 14.6909Z" fill="#F3E98A"/>
<path d="M49.6732 14.7234C49.8155 14.7078 49.9537 14.7195 50.0893 14.7572C50.2316 14.8273 50.3738 14.9026 50.5188 14.9688C50.419 15.2727 50.3606 15.5896 50.3765 15.9104C50.4217 18.5909 50.3286 21.274 50.427 23.9533C50.3778 23.9662 50.2781 23.9922 50.2289 24.0052C50.0455 24.0597 49.87 24.1351 49.6945 24.2065C49.6639 21.0455 49.6666 17.8831 49.6732 14.7234Z" fill="#FAD800"/>
<path d="M50.0898 14.7571L50.2906 14.7377L50.4967 14.7234C50.7267 14.7104 50.9553 14.7052 51.1867 14.7026C51.2664 14.7026 51.4246 14.7026 51.5044 14.7013C51.6028 14.8117 51.7012 14.9221 51.8022 15.0312C51.3755 15 50.9447 15.0156 50.5193 14.9688C50.3743 14.9026 50.2321 14.8273 50.0898 14.7571Z" fill="#FAF08C"/>
<path d="M51.5039 14.7013C51.5518 14.7013 51.6462 14.7013 51.694 14.7013C54.2027 14.7039 56.7115 14.7 59.2202 14.6974C59.183 14.787 59.1072 14.9675 59.07 15.0571C58.933 15.0714 58.7974 15.087 58.6632 15.1052C58.36 15.1402 58.0582 15.1818 57.7551 15.2C57.2685 15.2065 56.7819 15.2182 56.2954 15.2221C55.6186 15.2234 54.9419 15.2221 54.2666 15.2156C53.8491 15.2104 53.4343 15.1948 53.0182 15.1792C52.6645 15.1506 52.3122 15.1156 51.9599 15.0831C51.92 15.0701 51.8416 15.0441 51.8017 15.0312C51.7007 14.9221 51.6023 14.8117 51.5039 14.7013Z" fill="#F1D47B"/>
<path d="M61.1591 14.7273C61.2056 14.7351 61.2987 14.7494 61.3452 14.7572C61.4809 15.9961 61.3226 17.252 61.4317 18.4948C61.1485 18.7624 60.8786 19.0416 60.5994 19.3117C60.5236 18.1805 60.4412 17.0429 60.5449 15.9091C60.5795 15.6442 60.5555 15.3779 60.521 15.1143C60.6287 15.0312 60.7377 14.9481 60.848 14.8676C60.9265 14.8325 61.082 14.7624 61.1591 14.7273Z" fill="#F8D300"/>
<path d="M59.0699 15.0572C59.6655 15.0429 60.2757 15.065 60.8474 14.8676C60.7371 14.9481 60.6281 15.0312 60.5204 15.1143C60.5549 15.3779 60.5789 15.6442 60.5443 15.9091C60.4406 17.0429 60.523 18.1805 60.5988 19.3117C60.3356 19.565 60.0697 19.8169 59.8118 20.0753C59.5977 19.5702 59.7931 19.0312 59.7892 18.5091C59.7931 17.387 59.7918 16.265 59.7812 15.1429C59.5658 15.1351 59.3518 15.1273 59.1377 15.1195C59.0194 15.1156 58.7814 15.1091 58.6631 15.1052C58.7974 15.087 58.933 15.0714 59.0699 15.0572Z" fill="#FCED3D"/>
<path d="M59.792 23.748C60.0406 23.5571 60.2733 23.348 60.4913 23.1246C60.4953 23.3909 60.5006 23.6571 60.5073 23.9246C60.2693 23.861 60.0286 23.8052 59.792 23.748Z" fill="#FCED3D"/>
<path d="M50.5189 14.9689C50.9443 15.0156 51.3751 15 51.8018 15.0312C51.8417 15.0442 51.9202 15.0702 51.96 15.0832C51.8497 15.0845 51.6277 15.0858 51.5173 15.0858C51.403 15.0858 51.173 15.0858 51.0586 15.0858C50.9749 18.0078 51.064 20.9351 51.0228 23.8598C50.822 23.8858 50.6239 23.9169 50.4271 23.9533C50.3288 21.2741 50.4218 18.591 50.3766 15.9104C50.3607 15.5897 50.4192 15.2728 50.5189 14.9689Z" fill="#FDF048"/>
<path d="M51.023 23.8597C51.0642 20.935 50.9752 18.0078 51.0589 15.0857C51.1732 15.0857 51.4032 15.0857 51.5176 15.0857C51.5654 17.9883 51.5016 20.8922 51.5521 23.7948C51.3753 23.8143 51.1985 23.8363 51.023 23.8597Z" fill="#FADE02"/>
<path d="M51.5176 15.0857C51.6279 15.0857 51.8499 15.0844 51.9603 15.0831C52.3126 15.1156 52.6649 15.1507 53.0186 15.1792C52.9215 15.213 52.7261 15.2792 52.6277 15.313C52.7899 16.1961 52.7181 17.0961 52.7274 17.9883C52.7075 19.4156 52.7646 20.8442 52.7141 22.2714C52.7075 22.6753 52.5825 23.1182 52.8165 23.487C53.0611 23.5533 53.3177 23.5701 53.5716 23.5948L53.4307 23.6156C52.8045 23.6753 52.1783 23.7273 51.5521 23.7948C51.5016 20.8922 51.5654 17.9883 51.5176 15.0857Z" fill="#F4C300"/>
<path d="M57.7549 15.2C58.058 15.1818 58.3598 15.1403 58.6629 15.1052C58.7812 15.1091 59.0192 15.1156 59.1375 15.1195C59.0631 16.2026 59.083 17.287 59.083 18.3715C59.0897 19.1507 59.0219 19.9377 59.1774 20.7078C59.0631 20.8026 58.9488 20.8948 58.8344 20.9883C58.5233 20.665 58.2016 20.3507 57.8812 20.0364C57.9636 19.6572 57.7682 19.2922 57.824 18.9143C57.9836 17.7117 57.82 16.4987 57.9397 15.2935C57.8945 15.2702 57.8014 15.2234 57.7549 15.2Z" fill="#F1BF00"/>
<path d="M59.1378 15.1195C59.3519 15.1273 59.5659 15.1351 59.7813 15.1429C59.7919 16.265 59.7933 17.387 59.7893 18.5091C59.7933 19.0312 59.5978 19.5702 59.8119 20.0754C59.6032 20.2896 59.3971 20.5052 59.1777 20.7078C59.0222 19.9377 59.09 19.1507 59.0833 18.3715C59.0833 17.287 59.0634 16.2026 59.1378 15.1195Z" fill="#F8D700"/>
<path d="M52.6279 15.313C52.7263 15.2792 52.9217 15.213 53.0188 15.1792C53.4349 15.1948 53.8497 15.2104 54.2672 15.2156C54.319 16.8324 54.2871 18.4493 54.2978 20.0662C54.3124 21.2052 54.2472 22.3467 54.3629 23.4818C54.0983 23.513 53.8338 23.5532 53.5719 23.5948C53.3179 23.5701 53.0613 23.5532 52.8167 23.487C52.5827 23.1182 52.7077 22.6753 52.7143 22.2714C52.7649 20.8441 52.7077 19.4156 52.7276 17.9883C52.7183 17.0961 52.7901 16.1961 52.6279 15.313Z" fill="#E6AF00"/>
<path d="M54.2669 15.2156C54.9423 15.2221 55.619 15.2234 56.2957 15.2221C56.4034 15.3052 56.5137 15.3883 56.6227 15.4727C56.4632 16.5078 56.7504 17.5857 56.3927 18.5935C56.196 18.4039 56.0059 18.2091 55.8197 18.0104C55.8503 19.1312 55.829 20.2506 55.8304 21.3714C55.8384 21.526 55.8131 21.7104 55.9567 21.8195C56.5696 22.4351 57.1984 23.0377 57.8312 23.6351C56.3648 23.6065 54.8971 23.6247 53.4307 23.6156L53.5716 23.5948C53.8335 23.5532 54.0981 23.513 54.3626 23.4818C54.247 22.3467 54.3121 21.2052 54.2975 20.0662C54.2868 18.4493 54.3188 16.8325 54.2669 15.2156Z" fill="#DA9A00"/>
<path d="M56.2959 15.222C56.7825 15.2181 57.2691 15.2064 57.7557 15.2C57.8022 15.2233 57.8953 15.2701 57.9405 15.2935C57.8208 16.4987 57.9843 17.7116 57.8248 18.9142C57.769 19.2922 57.9644 19.6571 57.882 20.0363C57.3794 19.561 56.8902 19.0727 56.393 18.5935C56.7506 17.5857 56.4634 16.5077 56.6229 15.4727C56.5139 15.3883 56.4036 15.3051 56.2959 15.222Z" fill="#E7AE00"/>
<path d="M1.52988 16.2247C1.74925 16.839 1.57774 17.513 1.8237 18.1208C1.89815 17.9962 1.97393 17.8715 2.04838 17.7468C2.13347 17.8182 2.21855 17.891 2.30364 17.9624C2.31029 17.491 2.33821 17.0208 2.39404 16.5533C2.42329 17.0897 2.46052 17.6247 2.53364 18.1572C2.54826 20.1143 2.56156 22.0728 2.5363 24.0299L2.50838 24.1325C2.43925 23.904 2.36214 23.6793 2.28503 23.4533C2.00849 23.4871 1.73063 23.5208 1.4541 23.5559C1.54318 21.1143 1.41289 18.6663 1.52988 16.2247Z" fill="#F8F8F8"/>
<path d="M59.0559 21.0533C60.7217 19.3896 62.4368 17.7715 64.0853 16.0909C64.092 17.1987 64.1226 18.3065 64.0734 19.413C62.2746 21.0403 60.6141 22.8143 58.8392 24.4702C58.0654 23.6273 57.2079 22.8585 56.3956 22.0507C56.2494 21.8806 55.9795 21.7494 55.9968 21.4974C55.9768 20.5117 56.0087 19.526 55.9795 18.5416C56.0313 18.552 56.135 18.5741 56.1869 18.5857C56.9806 19.4728 57.8939 20.252 58.7235 21.1078C58.8113 21.265 58.9775 21.1598 59.0559 21.0533Z" fill="white"/>
<path d="M67.6146 17.4714L67.7422 17.4572C67.7422 18.7585 67.7502 20.061 67.7488 21.3636C67.7409 22.3909 67.8007 23.4247 67.6505 24.4455C67.3301 24.413 67.0097 24.3987 66.6892 24.4026C66.672 24.3078 66.6374 24.1208 66.6201 24.0273C66.6587 23.8805 66.6986 23.7351 66.7411 23.5896C67.0323 23.5429 67.3367 23.5013 67.6186 23.6208C67.6957 21.5727 67.6318 19.5208 67.6146 17.4714Z" fill="#D5D5D5"/>
<path d="M18.9771 20.9376L19.1141 21.0194C19.15 22.1039 19.1393 23.1909 19.1194 24.2753C18.9173 24.148 18.9665 23.8974 18.9479 23.7C18.9559 22.7792 18.916 21.8571 18.9771 20.9376Z" fill="#FBFBFB"/>
<path d="M23.5713 22.248C23.6683 21.8831 23.9595 21.4987 24.3902 21.5428C24.8449 21.4662 25.1933 21.8376 25.2518 22.2506C24.692 22.2545 24.1323 22.2584 23.5713 22.248Z" fill="white"/>
<path d="M35.373 21.6766C35.607 21.4429 35.9726 21.5442 36.2691 21.5611C36.6626 21.9416 36.7517 22.5338 36.6081 23.0403C36.519 23.3818 36.2212 23.726 35.825 23.6689C35.4089 23.7091 35.0832 23.3156 35.0805 22.9364C35.0526 22.5078 35.0034 21.9883 35.373 21.6766Z" fill="white"/>
<path d="M60.4912 23.1246C60.7744 22.8376 61.0669 22.5584 61.3554 22.2753C61.4072 22.8792 61.499 23.5051 61.366 24.1038C61.3142 24.109 61.2118 24.1194 61.1599 24.1259C60.9406 24.0597 60.7252 23.987 60.5072 23.9246C60.5005 23.6571 60.4952 23.3909 60.4912 23.1246Z" fill="#F8D000"/>
<path d="M51.0232 23.8598C51.1987 23.8364 51.3755 23.8143 51.5523 23.7948C52.1785 23.7273 52.8047 23.6753 53.4309 23.6156C54.8973 23.6247 56.365 23.6065 57.8315 23.6351C57.9764 23.7727 58.1173 23.913 58.2569 24.0559C58.0561 24.126 57.8514 24.1585 57.64 24.152C55.332 24.1507 53.0241 24.1611 50.7174 24.139C50.5419 24.139 50.3797 24.0948 50.2295 24.0052C50.2787 23.9922 50.3784 23.9663 50.4276 23.9533C50.6243 23.9169 50.8224 23.8857 51.0232 23.8598Z" fill="#705400"/>
<path d="M59.3867 24.1403C59.5077 23.9974 59.6446 23.8662 59.7922 23.748C60.0289 23.8052 60.2695 23.861 60.5075 23.9247C60.7255 23.987 60.9409 24.0597 61.1602 24.126C60.57 24.1701 59.977 24.1442 59.3867 24.1403Z" fill="#7B7521"/>
<path d="M2.50919 24.1325L2.53711 24.0299C2.61688 24.3546 2.70462 24.6767 2.79237 24.9987L2.77642 25.1598C2.47064 25.239 2.15954 25.2974 1.84977 25.3559C1.79792 25.2948 1.69555 25.1715 1.64503 25.1091C1.58919 24.9546 1.53734 24.7987 1.49214 24.6416C1.48549 24.565 1.47087 24.413 1.46289 24.3364C1.79393 24.3169 2.12497 24.3104 2.45601 24.3221C2.46931 24.2741 2.4959 24.1806 2.50919 24.1325Z" fill="#BFBFBF"/>
<path d="M66.587 24.1428L66.6202 24.0272C66.6375 24.1207 66.6721 24.3077 66.6894 24.4025C67.0098 24.3987 67.3302 24.4129 67.6506 24.4454C67.5854 24.7571 67.4937 25.0623 67.386 25.3636C66.9925 25.3129 66.599 25.2896 66.2041 25.2805C66.3583 24.9116 66.4753 24.5272 66.587 24.1428Z" fill="#B9BABA"/>
<path d="M65.6895 26.087C65.8822 25.8325 66.0564 25.5636 66.204 25.2805C66.5988 25.2896 66.9923 25.313 67.3859 25.3636C67.2636 25.6857 67.108 25.9961 66.9232 26.2883C66.5244 26.1558 66.1056 26.1104 65.6895 26.087Z" fill="#999999"/>
<path d="M65.0059 26.7429C65.2478 26.539 65.4792 26.3234 65.6892 26.087C66.1053 26.1104 66.5241 26.1559 66.923 26.2883C66.6066 27.0312 65.6533 26.9663 65.0059 26.7429Z" fill="#7F807E"/>
</svg>
