<svg width="65" height="28" viewBox="0 0 65 28" fill="none" xmlns="http://www.w3.org/2000/svg">
<g clip-path="url(#clip0_92_2160)">
<mask id="mask0_92_2160" style="mask-type:luminance" maskUnits="userSpaceOnUse" x="0" y="0" width="65" height="28">
<path d="M65 0H0V28H65V0Z" fill="white"/>
</mask>
<g mask="url(#mask0_92_2160)">
<path d="M26.2885 14.9501L23.04 23.7184L22.692 21.9344C21.8799 19.749 20.1218 17.4565 18.0781 16.5199L21.0588 27.786H24.5839L29.8226 14.9321H26.2885V14.9501ZM29.0818 27.8127L31.1612 14.9321H34.49L32.4106 27.8127H29.0818ZM44.4762 15.2533C43.8158 14.9946 42.7806 14.7092 41.4955 14.7092C38.2024 14.7092 35.8911 16.4575 35.8732 18.9552C35.8554 20.8105 37.5242 21.8363 38.7826 22.4518C40.0854 23.0851 40.5138 23.4865 40.5138 24.0484C40.505 24.9137 39.4787 25.3062 38.5237 25.3062C37.194 25.3062 36.489 25.1099 35.3913 24.6372L34.9629 24.432L34.4988 27.3132C35.2753 27.6699 36.7121 27.9822 38.2114 28C41.7008 28 43.9765 26.2695 44.0033 23.6025C44.0211 22.1307 43.1287 21.0245 41.2099 20.1058C40.0498 19.5082 39.3359 19.1157 39.3447 18.5091C39.3447 17.974 39.9427 17.403 41.2546 17.403C42.3434 17.3852 43.1287 17.635 43.7445 17.9025L44.0389 18.0542L44.4762 15.2533ZM53.008 14.9501H50.4377C49.6435 14.9501 49.0455 15.173 48.6885 16.0204L43.7533 27.8217H47.2428C47.2428 27.8217 47.814 26.2339 47.9478 25.886C48.3316 25.886 51.7228 25.8949 52.2048 25.8949C52.3118 26.3409 52.6064 27.8217 52.6064 27.8217H55.7031L53.008 14.9501ZM48.9027 23.2456C49.1794 22.5053 50.2236 19.6419 50.2236 19.6419C50.2056 19.6777 50.5002 18.9016 50.6697 18.411L50.8928 19.5171C50.8928 19.5171 51.5354 22.5945 51.6692 23.2368C51.1516 23.2456 49.5542 23.2456 48.9027 23.2456Z" fill="#4C9AE2"/>
<path d="M20.0154 14.941H14.6519L14.6162 15.1641C18.7839 16.2344 21.5414 18.848 22.6838 21.9432L21.5236 16.0204C21.3273 15.2087 20.7382 14.9678 20.0154 14.941Z" fill="#F4A637"/>
<path d="M4.58488 11.8279H2.46981L0.015625 0.802804L2.36273 0.410322L4.0405 9.03599L8.30633 0.526282H10.5553L4.58488 11.8279ZM15.6243 8.22428H10.5642C10.4214 9.75852 11.1353 10.4275 12.3491 10.4275C13.3575 10.4275 14.25 10.0529 15.2048 9.44633L15.196 10.9806C14.2588 11.5693 13.1701 11.944 11.8939 11.944C9.68959 11.944 8.23493 10.6862 8.67222 7.84964C9.06489 5.28958 10.8408 3.7375 12.8934 3.7375C15.2583 3.7375 16.0437 5.51259 15.7046 7.75152C15.6867 7.91208 15.6332 8.10832 15.6243 8.22428ZM12.6436 5.09334C11.8582 5.09334 11.1265 5.70883 10.7873 7.00223H13.9197C13.9733 5.78018 13.5896 5.09334 12.6436 5.09334ZM18.9174 7.26091L18.2213 11.7744H16.2668L17.4806 3.89806H19.1494V5.4769C19.8098 4.56706 20.7111 3.79994 21.9516 3.72857L21.9606 5.67315C20.7111 5.76235 19.6046 6.41351 18.9174 7.26091ZM21.9249 11.7744L23.1385 3.89806H25.093L23.8882 11.7744H21.9249ZM24.3344 2.57789C23.6829 2.57789 23.2278 2.12297 23.3349 1.4718C23.442 0.802804 24.031 0.330041 24.6825 0.330041C25.316 0.330041 25.7713 0.802804 25.6641 1.4718C25.566 2.12297 24.9769 2.57789 24.3344 2.57789ZM30.519 1.74833C29.8496 1.74833 29.448 2.04269 29.341 2.74737L29.1625 3.90697H30.6618V5.50366H28.9126L27.9488 11.7744H26.0032L26.9671 5.49475H25.8248L26.0747 3.89806H27.217L27.4222 2.54221C27.69 0.793883 28.9036 0.142721 30.519 0.142721C30.8581 0.142721 31.1169 0.178402 31.3132 0.205161L31.3311 1.80184C31.1347 1.784 30.8491 1.74833 30.519 1.74833ZM30.5368 11.7744L31.7505 3.89806H33.705L32.5002 11.7744H30.5368ZM32.9553 2.57789C32.3039 2.57789 31.8487 2.12297 31.9469 1.4718C32.0539 0.802804 32.643 0.330041 33.2944 0.330041C33.9281 0.330041 34.3832 0.802804 34.2761 1.4718C34.1779 2.12297 33.589 2.57789 32.9553 2.57789ZM41.3084 8.22428H36.2484C36.1146 9.75852 36.8195 10.4275 38.0333 10.4275C39.0418 10.4275 39.9342 10.0529 40.889 9.44633L40.8801 10.9806C39.9431 11.5693 38.8543 11.944 37.5782 11.944C35.3739 11.944 33.9191 10.6862 34.3564 7.84964C34.7491 5.28958 36.525 3.7375 38.5777 3.7375C40.9426 3.7375 41.7279 5.51259 41.3888 7.75152C41.3709 7.91208 41.3174 8.10832 41.3084 8.22428ZM38.3278 5.09334C37.5424 5.09334 36.8106 5.70883 36.4715 7.00223H39.6039C39.6575 5.78018 39.2738 5.09334 38.3278 5.09334ZM47.1003 11.7744L47.1093 10.6773C46.4489 11.3463 45.5922 11.935 44.5034 11.935C42.8524 11.935 41.719 10.713 42.1295 8.05479C42.5847 5.1201 44.3963 3.81778 46.2258 3.81778C46.9755 3.81778 47.5644 3.95158 48.0107 4.11214L48.5997 0.312201L50.6076 0L48.796 11.7744H47.1003ZM47.7607 5.72667C47.3056 5.49475 46.9487 5.3877 46.2793 5.3877C45.2531 5.3877 44.3696 6.21727 44.1108 7.94776C43.8787 9.482 44.4141 10.1956 45.2798 10.1956C45.9938 10.1956 46.6184 9.76744 47.2431 9.11627L47.7607 5.72667ZM54.7842 11.8547C53.8561 11.8547 53.0975 11.7031 52.4015 11.4623L53.6866 3.09526L55.2037 2.86333L54.6504 6.48487C55.0965 6.09238 55.7124 5.69098 56.462 5.69098C57.7203 5.69098 58.5681 6.62759 58.2558 8.6346C57.9167 10.8289 56.5601 11.8547 54.7842 11.8547ZM55.8819 6.99331C55.3911 6.99331 54.8914 7.32336 54.454 7.76935L54.0345 10.4721C54.3291 10.5792 54.5254 10.6327 54.9449 10.6327C55.8819 10.6327 56.5423 10.0618 56.7476 8.70595C56.9261 7.56419 56.5423 6.99331 55.8819 6.99331ZM61.7541 12.1045C60.9956 13.5763 60.2459 14.0312 59.0947 14.0312C58.8359 14.0312 58.6931 14.0045 58.5593 13.9688L58.5503 12.7468C58.7377 12.8003 58.9429 12.8359 59.2285 12.8359C59.6569 12.8359 60.0407 12.6397 60.2905 12.2026L60.4868 11.8101L59.2285 5.93182L60.8081 5.73558L61.54 9.98152L63.5122 5.81586H64.9848L61.7541 12.1045Z" fill="#4C9AE2"/>
</g>
</g>
<defs>
<clipPath id="clip0_92_2160">
<rect width="65" height="28" fill="white"/>
</clipPath>
</defs>
</svg>
