<svg width="50" height="28" viewBox="0 0 50 28" fill="none" xmlns="http://www.w3.org/2000/svg">
<path d="M29.3635 21.8646H20.6143V6.14075H29.3635V21.8646Z" fill="#FF5F00"/>
<path d="M21.1748 14.0013C21.1748 10.8117 22.6682 7.97044 24.9938 6.13943C23.2931 4.8005 21.1468 4.00134 18.8142 4.00134C13.2919 4.00134 8.81543 8.47842 8.81543 14.0013C8.81543 19.5243 13.2919 24.0013 18.8142 24.0013C21.1468 24.0013 23.2931 23.2022 24.9938 21.8633C22.6682 20.0322 21.1748 17.191 21.1748 14.0013Z" fill="#EB001B"/>
<path d="M41.1634 14.0013C41.1634 19.5243 36.687 24.0013 31.1647 24.0013C28.832 24.0013 26.6857 23.2022 24.9844 21.8633C27.3107 20.0322 28.8041 17.191 28.8041 14.0013C28.8041 10.8117 27.3107 7.97044 24.9844 6.13943C26.6857 4.8005 28.832 4.00134 31.1647 4.00134C36.687 4.00134 41.1634 8.47842 41.1634 14.0013Z" fill="#F79E1B"/>
<path d="M16.3398 14.0646C16.3398 13.6278 16.6261 13.269 17.0938 13.269C17.5407 13.269 17.8424 13.6123 17.8424 14.0646C17.8424 14.5169 17.5407 14.8602 17.0938 14.8602C16.6261 14.8602 16.3398 14.5014 16.3398 14.0646ZM18.3518 14.0646V12.822H17.8115V13.1238C17.6401 12.9 17.38 12.7596 17.0266 12.7596C16.3297 12.7596 15.7834 13.3059 15.7834 14.0646C15.7834 14.8239 16.3297 15.3696 17.0266 15.3696C17.38 15.3696 17.6401 15.2292 17.8115 15.0054V15.3071H18.3518V14.0646ZM36.6116 14.0646C36.6116 13.6278 36.8979 13.269 37.3656 13.269C37.8131 13.269 38.1142 13.6123 38.1142 14.0646C38.1142 14.5169 37.8131 14.8602 37.3656 14.8602C36.8979 14.8602 36.6116 14.5014 36.6116 14.0646ZM38.6242 14.0646V11.8241H38.0833V13.1238C37.9119 12.9 37.6518 12.7596 37.2983 12.7596C36.6015 12.7596 36.0552 13.3059 36.0552 14.0646C36.0552 14.8239 36.6015 15.3696 37.2983 15.3696C37.6518 15.3696 37.9119 15.2292 38.0833 15.0054V15.3071H38.6242V14.0646ZM25.0591 13.2434C25.4072 13.2434 25.631 13.4618 25.6881 13.8462H24.3986C24.4563 13.4874 24.6741 13.2434 25.0591 13.2434ZM25.0698 12.7596C24.3414 12.7596 23.832 13.2898 23.832 14.0646C23.832 14.8549 24.3622 15.3696 25.1061 15.3696C25.4804 15.3696 25.8232 15.2762 26.1249 15.0215L25.8601 14.621C25.6518 14.787 25.3864 14.8811 25.1371 14.8811C24.7889 14.8811 24.4717 14.7198 24.3938 14.2723H26.2392C26.2445 14.205 26.2499 14.1372 26.2499 14.0646C26.2445 13.2898 25.7661 12.7596 25.0698 12.7596ZM31.5944 14.0646C31.5944 13.6278 31.8806 13.269 32.3484 13.269C32.7953 13.269 33.097 13.6123 33.097 14.0646C33.097 14.5169 32.7953 14.8602 32.3484 14.8602C31.8806 14.8602 31.5944 14.5014 31.5944 14.0646ZM33.6064 14.0646V12.822H33.0661V13.1238C32.8941 12.9 32.6346 12.7596 32.2811 12.7596C31.5843 12.7596 31.038 13.3059 31.038 14.0646C31.038 14.8239 31.5843 15.3696 32.2811 15.3696C32.6346 15.3696 32.8941 15.2292 33.0661 15.0054V15.3071H33.6064V14.0646ZM28.5428 14.0646C28.5428 14.8186 29.0676 15.3696 29.8686 15.3696C30.2429 15.3696 30.4923 15.2863 30.7625 15.0733L30.503 14.6365C30.3001 14.7823 30.087 14.8602 29.8526 14.8602C29.4211 14.8549 29.1039 14.543 29.1039 14.0646C29.1039 13.5861 29.4211 13.2743 29.8526 13.269C30.087 13.269 30.3001 13.3469 30.503 13.4927L30.7625 13.0559C30.4923 12.8429 30.2429 12.7596 29.8686 12.7596C29.0676 12.7596 28.5428 13.3106 28.5428 14.0646ZM35.5095 12.7596C35.1977 12.7596 34.9948 12.9054 34.8543 13.1238V12.822H34.3187V15.3071H34.8597V13.914C34.8597 13.5028 35.0364 13.2743 35.3899 13.2743C35.4994 13.2743 35.6136 13.2898 35.7279 13.3368L35.8945 12.8274C35.7749 12.7804 35.619 12.7596 35.5095 12.7596ZM21.0244 13.0196C20.7643 12.8482 20.4061 12.7596 20.0109 12.7596C19.3813 12.7596 18.9761 13.0613 18.9761 13.5552C18.9761 13.9605 19.2778 14.2104 19.8336 14.2883L20.0889 14.3246C20.3853 14.3663 20.5251 14.4443 20.5251 14.5847C20.5251 14.7769 20.3275 14.8864 19.9586 14.8864C19.5843 14.8864 19.3141 14.7668 19.132 14.6264L18.8773 15.0471C19.1736 15.2655 19.548 15.3696 19.9532 15.3696C20.6709 15.3696 21.0869 15.0316 21.0869 14.5585C21.0869 14.1217 20.7596 13.8932 20.2186 13.8152L19.9639 13.7784C19.7301 13.7474 19.5426 13.701 19.5426 13.5344C19.5426 13.3523 19.7193 13.2434 20.0157 13.2434C20.3329 13.2434 20.64 13.363 20.7905 13.4564L21.0244 13.0196ZM27.9965 12.7596C27.6846 12.7596 27.4817 12.9054 27.3419 13.1238V12.822H26.8063V15.3071H27.3466V13.914C27.3466 13.5028 27.5234 13.2743 27.8769 13.2743C27.9864 13.2743 28.1006 13.2898 28.2149 13.3368L28.3815 12.8274C28.2619 12.7804 28.106 12.7596 27.9965 12.7596ZM23.3851 12.822H22.5014V12.0681H21.9551V12.822H21.4511V13.316H21.9551V14.4496C21.9551 15.0263 22.1789 15.3696 22.818 15.3696C23.0525 15.3696 23.3226 15.297 23.494 15.1774L23.3381 14.7144C23.1768 14.8079 23.0001 14.8549 22.8596 14.8549C22.5895 14.8549 22.5014 14.6882 22.5014 14.4389V13.316H23.3851V12.822ZM15.3056 15.3071V13.7474C15.3056 13.1601 14.9312 12.7649 14.3278 12.7596C14.0106 12.7542 13.6833 12.853 13.4542 13.2017C13.2828 12.9262 13.0127 12.7596 12.633 12.7596C12.3676 12.7596 12.1081 12.8375 11.9052 13.1285V12.822H11.3643V15.3071H11.91V13.9295C11.91 13.4981 12.1492 13.269 12.5187 13.269C12.8776 13.269 13.0591 13.5028 13.0591 13.9242V15.3071H13.6054V13.9295C13.6054 13.4981 13.8547 13.269 14.2136 13.269C14.5825 13.269 14.7593 13.5028 14.7593 13.9242V15.3071H15.3056Z" fill="white"/>
</svg>
