<svg width="50" height="28" viewBox="0 0 50 28" fill="none" xmlns="http://www.w3.org/2000/svg">
<path d="M22.4669 19.5354H19.3887L21.314 8.49988H24.3921L22.4669 19.5354Z" fill="white"/>
<path d="M33.6256 8.76975C33.0184 8.54646 32.0554 8.29993 30.8646 8.29993C27.8247 8.29993 25.684 9.80255 25.6709 11.9509C25.6457 13.5359 27.2036 14.4162 28.3688 14.9447C29.5597 15.4848 29.9645 15.8373 29.9645 16.3186C29.9524 17.0579 29.0022 17.3987 28.1159 17.3987C26.8869 17.3987 26.2284 17.223 25.2277 16.8117L24.8224 16.6354L24.3916 19.1126C25.1136 19.4175 26.4437 19.6881 27.8247 19.6999C31.0546 19.6999 33.1574 18.2205 33.1823 15.9312C33.1946 14.6749 32.372 13.7124 30.5985 12.9258C29.5218 12.4208 28.8625 12.0804 28.8625 11.5637C28.8751 11.0941 29.4201 10.613 30.6355 10.613C31.6362 10.5894 32.3715 10.8124 32.9285 11.0356L33.2069 11.1527L33.6256 8.76975Z" fill="white"/>
<path d="M37.7167 15.6259C37.9702 14.9919 38.9457 12.5382 38.9457 12.5382C38.9329 12.5618 39.1987 11.8926 39.3507 11.4817L39.5658 12.4326C39.5658 12.4326 40.1487 15.0741 40.2753 15.6259C39.7942 15.6259 38.3247 15.6259 37.7167 15.6259ZM41.5164 8.49988H39.1354C38.4011 8.49988 37.8433 8.69929 37.5265 9.4155L32.9541 19.5352H36.184C36.184 19.5352 36.7158 18.1732 36.8301 17.8798C37.1844 17.8798 40.3265 17.8798 40.7823 17.8798C40.8707 18.2673 41.1496 19.5352 41.1496 19.5352H43.9998L41.5164 8.49988Z" fill="white"/>
<path d="M16.8168 8.49988L13.8021 16.025L13.4727 14.4988C12.9154 12.7378 11.1674 10.8245 9.2168 9.87315L11.9781 19.5237H15.2333L20.0718 8.49988H16.8168Z" fill="white"/>
<path d="M11.0033 8.49988H6.05067L6 8.72285C9.86336 9.63863 12.422 11.8461 13.4732 14.4993L12.3966 9.42751C12.2193 8.7227 11.6746 8.52313 11.0033 8.49988Z" fill="#FAA61A"/>
</svg>
